<svg width="24" height="24" viewBox="0 0 24 24" xmlns="http://www.w3.org/2000/svg">
<path d="M21 14.7639V12.416C20.3875 12.1484 19.7111 12 19 12C16.7612 12 14.866 13.4714 14.2289 15.5H13V16.5H14.0247C14.0084 16.6645 14 16.8313 14 17C14 17.1687 14.0084 17.3355 14.0247 17.5H13V18.5H14.2289C14.866 20.5286 16.7612 22 19 22C19.7111 22 20.3875 21.8516 21 21.584V19.2361C20.4692 19.7111 19.7684 20 19 20C17.8896 20 16.9201 19.3967 16.4013 18.5H19V17.5H16.0415C16.0142 17.3374 16 17.1704 16 17C16 16.8296 16.0142 16.6626 16.0415 16.5H19V15.5H16.4013C16.9201 14.6033 17.8896 14 19 14C19.7684 14 20.4692 14.2889 21 14.7639Z"/>
<path d="M8 1L10.8868 6H9V7H11V8H9V9H11V11H13V9H15V8H13V7H15V6H13V5.73205L15.7321 1H13.4226L11.866 3.69615L10.3094 1H8Z"/>
<path d="M5 12H7V13H9V15H4.92857C4.65244 15 4.42857 15.2239 4.42857 15.5C4.42857 15.7761 4.65244 16 4.92857 16H7.07143C8.45213 16 9.57143 17.1193 9.57143 18.5C9.57143 19.8807 8.45215 21 7.07143 21H7V22H5V21H3V19H7.07143C7.34756 19 7.57143 18.7761 7.57143 18.5C7.57143 18.2239 7.34756 18 7.07143 18H4.92857C3.54785 18 2.42857 16.8807 2.42857 15.5C2.42857 14.1193 3.54787 13 4.92857 13H5V12Z"/>
</svg>
