<svg width="24" height="24" viewBox="0 0 24 24" xmlns="http://www.w3.org/2000/svg">
<path d="M22.7368 13.8947H15.1579C14.4594 13.8947 13.8947 13.3288 13.8947 12.6316C13.8947 11.9343 14.4594 11.3684 15.1579 11.3684H22.7368C23.4354 11.3684 24 11.9343 24 12.6316C24 13.3288 23.4354 13.8947 22.7368 13.8947Z" />
<path d="M18.9474 17.6842C18.2488 17.6842 17.6842 17.1183 17.6842 16.4211V8.84211C17.6842 8.14484 18.2488 7.57895 18.9474 7.57895C19.6459 7.57895 20.2105 8.14484 20.2105 8.84211V16.4211C20.2105 17.1183 19.6459 17.6842 18.9474 17.6842Z" />
<path d="M7.57895 3.78947C9.66821 3.78947 11.3684 5.48968 11.3684 7.57894C11.3684 9.66821 9.66821 11.3684 7.57895 11.3684C5.48969 11.3684 3.78948 9.66821 3.78948 7.57894C3.78948 5.48968 5.48969 3.78947 7.57895 3.78947ZM7.57895 1.26315C4.08758 1.26315 1.26316 4.0901 1.26316 7.57894C1.26316 11.0678 4.08758 13.8947 7.57895 13.8947C11.0703 13.8947 13.8947 11.0678 13.8947 7.57894C13.8947 4.0901 11.0703 1.26315 7.57895 1.26315Z" />
<path d="M7.57895 17.6842C10.1318 17.6842 11.7486 18.6581 12.3575 19.5095C11.4947 19.8379 9.87032 20.2105 7.57895 20.2105C5.07284 20.2105 3.52926 19.8253 2.75621 19.5259C3.336 18.6227 5.00084 17.6842 7.57895 17.6842ZM7.57895 15.1579C2.84211 15.1579 0 17.6842 0 20.2105C0 21.4737 2.84211 22.7368 7.57895 22.7368C12.0227 22.7368 15.1579 21.4737 15.1579 20.2105C15.1579 17.6842 12.1844 15.1579 7.57895 15.1579Z" />
</svg>
