<svg width="48" height="48" viewBox="0 0 48 48" fill="none" xmlns="http://www.w3.org/2000/svg">
<path d="M48 24C48 37.2548 37.2548 48 24 48C10.7452 48 0 37.2548 0 24C0 24.0056 24 0.00271875 24 0C37.2548 0 48 10.7452 48 24Z" fill="#0052B4"/>
<path d="M24 0C23.9987 0 23.9973 0.001 23.996 0.001L24 0Z" fill="#F0F0F0"/>
<path d="M23.9358 24H24C24 23.9782 24 23.9574 24 23.9358C23.9786 23.9572 23.9573 23.9786 23.9358 24Z" fill="#F0F0F0"/>
<path d="M24 12.5227C24 8.29975 24 5.53254 24 0.00100708H23.996C10.743 0.00316333 0 10.7474 0 24.0009H12.5217V16.9498L19.5728 24.0009H23.9359C23.9573 23.9795 23.9787 23.9582 24.0001 23.9367C24.0001 22.3198 24.0001 20.8771 24.0001 19.5739L16.9489 12.5227H24Z" fill="#F0F0F0"/>
<path d="M12.1421 3.1304C8.3884 5.26781 5.26784 8.38837 3.13043 12.142V24H9.39134V9.3914V9.39131H24C24 7.41665 24 5.53547 24 3.1304H12.1421V3.1304Z" fill="#D80027"/>
<path d="M24 21.0487L15.4732 12.5219H12.5219C12.5219 12.5218 12.5219 12.5219 12.5219 12.5219L23.9999 24H24C24 24 24 21.9652 24 21.0487Z" fill="#D80027"/>
<path d="M14.4745 28.174L15.7917 30.9281L18.7661 30.2407L17.4341 32.9877L19.826 34.8846L16.8479 35.5558L16.8562 38.6087L14.4745 36.6987L12.0929 38.6087L12.1012 35.5558L9.12299 34.8846L11.515 32.9877L10.1828 30.2407L13.1574 30.9281L14.4745 28.174Z" fill="#F0F0F0"/>
<path d="M35.9329 33.3913L36.5915 34.7684L38.0787 34.4246L37.4126 35.7982L38.6087 36.7466L37.1195 37.0823L37.1237 38.6087L35.9329 37.6537L34.742 38.6087L34.7462 37.0823L33.2571 36.7466L34.4531 35.7982L33.7871 34.4246L35.2743 34.7684L35.9329 33.3913Z" fill="#F0F0F0"/>
<path d="M29.8062 18.7826L30.4647 20.1598L31.952 19.8159L31.286 21.1895L32.482 22.1379L30.9929 22.4736L30.997 24L29.8062 23.045L28.6154 24L28.6195 22.4736L27.1304 22.1379L28.3264 21.1895L27.6604 19.8159L29.1477 20.1598L29.8062 18.7826Z" fill="#F0F0F0"/>
<path d="M35.9329 10.4348L36.5915 11.8119L38.0787 11.4682L37.4127 12.8417L38.6086 13.7901L37.1195 14.1258L37.1237 15.6522L35.9329 14.6972L34.742 15.6522L34.7462 14.1258L33.2571 13.7901L34.453 12.8417L33.7871 11.4682L35.2743 11.8119L35.9329 10.4348Z" fill="#F0F0F0"/>
<path d="M41.2845 16.6957L41.943 18.0728L43.4302 17.729L42.7642 19.1025L43.9602 20.051L42.471 20.3867L42.4752 21.913L41.2845 20.9581L40.0936 21.913L40.0977 20.3867L38.6086 20.051L39.8046 19.1025L39.1386 17.729L40.6258 18.0728L41.2845 16.6957Z" fill="#F0F0F0"/>
<path d="M37.4578 24L37.9757 25.5943H39.6522L38.2959 26.5797L38.8141 28.1739L37.4578 27.1886L36.1016 28.1739L36.6196 26.5797L35.2634 25.5943H36.9397L37.4578 24Z" fill="#F0F0F0"/>
</svg>
