<svg width="48" height="48" viewBox="0 0 48 48" fill="none" xmlns="http://www.w3.org/2000/svg">
<g clip-path="url(#clip0)">
<path d="M24 48C37.2548 48 48 37.2548 48 24C48 10.7452 37.2548 0 24 0C10.7452 0 0 10.7452 0 24C0 37.2548 10.7452 48 24 48Z" fill="#F0F0F0"/>
<path d="M24 0C15.4903 0 8.01562 4.42903 3.75412 11.1074L36.3003 44.6108C43.3074 40.42 48 32.7584 48 24C48 10.7452 37.2547 0 24 0Z" fill="#FFDA44"/>
<path d="M48 24C48 17.7729 45.6283 12.1003 41.7391 7.83487V40.1652C45.6283 35.8997 48 30.2271 48 24Z" fill="#0052B4"/>
<path d="M29.9802 45.1756L32.4941 45.174L33.2696 42.7825L34.0479 45.173L35.3089 45.1723C36.082 44.7584 36.8299 44.3035 37.5495 43.8102L4.18959 10.4504C3.63984 11.2525 3.13847 12.0901 2.68762 12.9582L2.98406 13.8687L5.49797 13.8671L3.46509 15.346L4.24341 17.7365L2.20866 16.2602L0.995062 17.1429C0.348094 19.3157 0 21.6171 0 24C0 37.2547 10.7452 48 24 48C26.8024 48 29.4922 47.5189 31.9922 46.6357L29.9802 45.1756ZM5.35303 22.9565L6.12834 20.5652L4.09378 19.0886L6.60769 19.087L7.38309 16.6955L8.16141 19.0861L10.6753 19.0845L8.64234 20.5634L9.42066 22.9539L7.38591 21.4775L5.35303 22.9565ZM10.5304 28.1739L11.3057 25.7825L9.27112 24.306L11.785 24.3044L12.5604 21.9129L13.3387 24.3035L15.8527 24.3019L13.8198 25.7808L14.5981 28.1713L12.5633 26.6949L10.5304 28.1739ZM15.7076 33.3913L16.4829 30.9999L14.4484 29.5234L16.9623 29.5218L17.7377 27.1303L18.516 29.5208L21.0299 29.5192L18.997 30.9981L19.7753 33.3887L17.7406 31.9121L15.7076 33.3913ZM22.9178 37.1298L20.8849 38.6087L21.6602 36.2173L19.6256 34.7407L22.1395 34.7391L22.915 32.3477L23.6933 34.7382L26.2072 34.7366L24.1744 36.2155L24.9527 38.606L22.9178 37.1298ZM26.0622 43.826L26.8375 41.4347L24.803 39.9581L27.3169 39.9565L28.0923 37.565L28.8706 39.9556L31.3845 39.954L29.3516 41.4329L30.1299 43.8234L28.0952 42.3469L26.0622 43.826Z" fill="#0052B4"/>
</g>
<defs>
<clipPath id="clip0">
<rect width="48" height="48" fill="white"/>
</clipPath>
</defs>
</svg>
