<svg width="48" height="48" viewBox="0 0 48 48" xmlns="http://www.w3.org/2000/svg">
<g clip-path="url(#clip0)">
<path d="M45.7982 43.626H2.1814C0.97632 43.626 0 44.6023 0 45.8084C0 47.0125 0.97632 47.9888 2.1814 47.9888H45.7972C47.0022 47.9888 47.9786 47.0125 47.9786 45.8084C47.9775 44.6023 47.0012 43.626 45.7982 43.626Z"/>
<path d="M4.90713 37.9549C3.70205 37.9549 2.72573 38.9313 2.72573 40.1363C2.72573 41.3414 3.70205 42.3188 4.90713 42.3188H43.0714C44.2765 42.3188 45.2528 41.3414 45.2528 40.1363C45.2528 38.9313 44.2765 37.9549 43.0714 37.9549H42.5271V18.3264H43.0714C43.675 18.3264 44.1611 17.8383 44.1611 17.2367C44.1611 16.6352 43.6729 16.1471 43.0714 16.1471H4.90713C4.30459 16.1471 3.81745 16.6352 3.81745 17.2367C3.81745 17.8383 4.30561 18.3264 4.90713 18.3264H5.45248V37.9539H4.90713V37.9549ZM38.1643 18.3264V37.9539H31.6221V18.3264H38.1643ZM27.2593 18.3264V37.9539H20.7172V18.3264H27.2593ZM9.81324 18.3264H16.3554V37.9539H9.81324V18.3264Z"/>
<path d="M2.1814 14.186H45.7972C45.8043 14.186 45.8125 14.186 45.8186 14.186C47.0247 14.186 48 13.2097 48 12.0046C48 11.0467 47.3832 10.2348 46.5263 9.94066L24.8859 0.20299C24.3171 -0.0523233 23.6666 -0.0523233 23.0967 0.20299L1.28678 10.0162C0.348247 10.439 -0.167486 11.4582 0.0490197 12.4632C0.264504 13.4681 1.153 14.186 2.1814 14.186Z"/>
</g>
<defs>
<clipPath id="clip0">
<rect width="48" height="48" fill="white"/>
</clipPath>
</defs>
</svg>
