<svg width="48" height="48" viewBox="0 0 48 48" fill="none" xmlns="http://www.w3.org/2000/svg">
<path d="M24 48C37.2548 48 48 37.2548 48 24C48 10.7452 37.2548 0 24 0C10.7452 0 0 10.7452 0 24C0 37.2548 10.7452 48 24 48Z" fill="#6DA544"/>
<path d="M24 9.39131L43.8261 24L24 38.6087L4.17395 24L24 9.39131Z" fill="#FFDA44"/>
<path d="M24 32.3478C28.6104 32.3478 32.3478 28.6104 32.3478 24C32.3478 19.3897 28.6104 15.6522 24 15.6522C19.3897 15.6522 15.6522 19.3897 15.6522 24C15.6522 28.6104 19.3897 32.3478 24 32.3478Z" fill="#F0F0F0"/>
<path d="M19.8261 23.4783C18.3744 23.4783 16.9735 23.6991 15.6548 24.1087C15.7133 28.6687 19.4261 32.3479 24 32.3479C26.8282 32.3479 29.3261 30.94 30.8361 28.7884C28.2527 25.5543 24.2776 23.4783 19.8261 23.4783Z" fill="#0052B4"/>
<path d="M32.1931 25.5994C32.2936 25.0815 32.3479 24.5472 32.3479 24C32.3479 19.3896 28.6104 15.6522 24.0001 15.6522C20.56 15.6522 17.6069 17.7336 16.3289 20.7053C17.4586 20.4712 18.6282 20.3479 19.8263 20.3479C24.6747 20.3478 29.0609 22.3632 32.1931 25.5994Z" fill="#0052B4"/>
</svg>
