<svg width="48" height="48" viewBox="0 0 48 48" fill="none" xmlns="http://www.w3.org/2000/svg">
<g clip-path="url(#clip0)">
<path d="M24 48C37.2548 48 48 37.2548 48 24C48 10.7452 37.2548 0 24 0C10.7452 0 0 10.7452 0 24C0 37.2548 10.7452 48 24 48Z" fill="#F0F0F0"/>
<path d="M48 24C48 14.4849 42.4627 6.26344 34.4348 2.38144V45.6185C42.4627 41.7366 48 33.5151 48 24Z" fill="#D80027"/>
<path d="M0 24C0 33.5151 5.53734 41.7366 13.5652 45.6186V2.38144C5.53734 6.26344 0 14.4849 0 24Z" fill="#D80027"/>
<path d="M28.1739 27.1304L32.3478 25.0434L30.2609 24V21.913L26.087 24L28.1739 19.8261H26.087L24 16.6956L21.913 19.8261H19.8261L21.913 24L17.7391 21.913V24L15.6522 25.0434L19.8261 27.1304L18.7826 29.2174H22.9566V32.3478H25.0434V29.2174H29.2174L28.1739 27.1304Z" fill="#D80027"/>
</g>
<defs>
<clipPath id="clip0">
<rect width="48" height="48" fill="white"/>
</clipPath>
</defs>
</svg>
