<svg width="24" height="24" viewBox="0 0 24 24" xmlns="http://www.w3.org/2000/svg">
<g clip-path="url(#clip0)">
<path d="M23.0837 4.43898L8.38484 1.32829C7.76296 1.19672 7.14656 1.59794 7.01499 2.21982L6.73573 4.01442L23.6957 7.60343L23.975 5.80883C24.1065 5.18718 23.7056 4.57058 23.0837 4.43898Z" />
<path d="M16.9022 7.98402C16.7305 7.36574 16.0844 7.00029 15.4663 7.1717L12.6759 7.94633L6.09778 6.55417L5.37433 9.97243L0.854139 11.227C0.236096 11.3985 -0.129358 12.0446 0.042055 12.6627L2.58944 21.8423C2.76113 22.4603 3.40729 22.826 4.02534 22.6544L18.6375 18.5993C19.2556 18.4276 19.621 17.7817 19.4496 17.1634L19.0123 15.5876L20.6511 15.934C21.273 16.0658 21.8894 15.6646 22.021 15.0427L23.0578 10.1432L17.1548 8.89407L16.9022 7.98402ZM18.5897 12.6495L18.9511 10.9415C19.0054 10.6858 19.2589 10.5209 19.5146 10.5749L21.2226 10.9365C21.4785 10.9907 21.6435 11.244 21.5895 11.5L21.2281 13.2079C21.1738 13.4637 20.9203 13.6288 20.6645 13.5746L18.9566 13.2132C18.7004 13.1588 18.5354 12.9052 18.5897 12.6495ZM1.10842 12.1431L5.15217 11.0213L14.6934 8.37351L15.7201 8.08826C15.7388 8.0832 15.7575 8.08081 15.7758 8.08081C15.8582 8.08081 15.9566 8.13485 15.9854 8.23834L16.106 8.67246L16.4837 10.0334L1.45657 14.2035L0.958336 12.4086C0.92712 12.296 0.995826 12.1743 1.10842 12.1431ZM18.5333 17.4174C18.5525 17.4871 18.5323 17.5447 18.5119 17.5807C18.4917 17.6167 18.4528 17.6638 18.3832 17.683L3.7713 21.738C3.75283 21.7431 3.73384 21.7457 3.71557 21.7457C3.63322 21.7457 3.53475 21.6914 3.50596 21.588L2.02015 16.2336L17.0472 12.0633L17.9637 15.3656L18.5333 17.4174Z"/>
<path d="M6.13256 17.7838C6.06244 17.5317 5.79926 17.3828 5.54714 17.4527L3.84066 17.9264C3.58877 17.9963 3.43967 18.2597 3.50979 18.5118L3.98329 20.2181C4.0534 20.4702 4.31658 20.6191 4.5687 20.549L6.27518 20.0755C6.5273 20.0056 6.67617 19.7422 6.60628 19.4901L6.13256 17.7838Z" />
</g>
<defs>
<clipPath id="clip0">
<rect width="24" height="24" fill="white"/>
</clipPath>
</defs>
</svg>
