<svg width="24" height="24" viewBox="0 0 24 24" xmlns="http://www.w3.org/2000/svg">
<path d="M22.2132 1.70711C21.8227 1.31658 21.1895 1.31658 20.799 1.70711L11.9601 10.5459L3.12129 1.70711C2.73077 1.31659 2.0976 1.31659 1.70708 1.70711C1.31655 2.09763 1.31655 2.7308 1.70708 3.12132L10.5459 11.9602L1.70709 20.799C1.31656 21.1895 1.31656 21.8227 1.70709 22.2132C2.09761 22.6037 2.73077 22.6037 3.1213 22.2132L11.9601 13.3744L20.799 22.2132C21.1895 22.6037 21.8226 22.6037 22.2132 22.2132C22.6037 21.8227 22.6037 21.1895 22.2132 20.799L13.3743 11.9602L22.2132 3.12132C22.6037 2.7308 22.6037 2.09763 22.2132 1.70711Z"/>
</svg>
