<svg width="48" height="48" viewBox="0 0 48 48" fill="none" xmlns="http://www.w3.org/2000/svg">
<path d="M24 48C37.2548 48 48 37.2548 48 24C48 10.7452 37.2548 0 24 0C10.7452 0 0 10.7452 0 24C0 37.2548 10.7452 48 24 48Z" fill="#D80027"/>
<path d="M13.1344 14.6063L15.2062 20.9813H21.9094L16.4906 24.9281L18.5625 31.3031L13.1344 27.3656L7.70625 31.3031L9.7875 24.9281L4.35938 20.9813H11.0625L13.1344 14.6063Z" fill="#FFDA44"/>
<path d="M28.4531 37.1719L26.8687 35.2219L24.525 36.1313L25.8844 34.0219L24.3 32.0625L26.7281 32.7094L28.0969 30.6L28.2281 33.1125L30.6656 33.7594L28.3125 34.6594L28.4531 37.1719Z" fill="#FFDA44"/>
<path d="M31.6031 31.4531L32.3531 29.0531L30.3 27.6L32.8125 27.5625L33.5531 25.1625L34.3687 27.5438L36.8812 27.5156L34.8656 29.0156L35.6719 31.3969L33.6187 29.9438L31.6031 31.4531Z" fill="#FFDA44"/>
<path d="M35.85 17.6156L34.7438 19.875L36.5438 21.6281L34.0594 21.2719L32.9531 23.5219L32.5219 21.0469L30.0281 20.6906L32.2594 19.5188L31.8281 17.0344L33.6281 18.7875L35.85 17.6156Z" fill="#FFDA44"/>
<path d="M28.5187 10.7719L28.3312 13.275L30.6656 14.2219L28.2187 14.8219L28.0406 17.3344L26.7187 15.1969L24.2719 15.7969L25.8937 13.875L24.5625 11.7469L26.8969 12.6938L28.5187 10.7719Z" fill="#FFDA44"/>
</svg>
