<svg width="48" height="48" viewBox="0 0 48 48" xmlns="http://www.w3.org/2000/svg">
<path fill-rule="evenodd" clip-rule="evenodd" d="M38.268 8.97551C38.268 13.3803 34.6973 16.951 30.2925 16.951C29.9539 16.951 29.6203 16.9299 29.2928 16.889C29.7499 15.6799 30 14.3691 30 13C30 8.93391 27.7938 5.38309 24.5132 3.47926C25.9661 1.952 28.0181 1 30.2925 1C34.6973 1 38.268 4.57076 38.268 8.97551ZM36.2491 38.4471C37.2312 38.2564 38.2039 38.0167 39.1635 37.7288L40.4834 37.3329L43.4676 36.0066C43.5451 35.1359 43.585 34.2475 43.585 33.3451C43.585 25.9761 40.92 19.5408 36.9568 16.0895C35.2137 17.723 32.8699 18.7233 30.2925 18.7233C29.6783 18.7233 29.0774 18.6665 28.4947 18.5579C28.3577 18.7913 28.2125 19.0192 28.0592 19.2412C32.5184 23.2905 35.651 30.2965 36.2491 38.4471Z"/>
<path fill-rule="evenodd" clip-rule="evenodd" d="M28 13C28 17.9706 23.9706 22 19 22C14.0294 22 10 17.9706 10 13C10 8.02944 14.0294 4 19 4C23.9706 4 28 8.02944 28 13ZM11.4797 21.0278C7.00737 24.9225 4 32.1844 4 40.5C4 41.6075 4.05334 42.6962 4.15638 43.7608C7.18447 44.9456 10.311 45.8622 13.5 46.5L16.1576 46.7416C18.0492 46.9136 19.9519 46.9268 21.8457 46.7811C24.2749 46.5942 26.6769 46.1469 29.0105 45.4468L30.5 45L33.8675 43.5033C33.9549 42.5208 34 41.5183 34 40.5C34 32.1844 30.9926 24.9225 26.5203 21.0278C24.5533 22.8712 21.9085 24 19 24C16.0915 24 13.4467 22.8712 11.4797 21.0278ZM22.5 15L21.4338 16.0662C21.1499 16.3501 20.7943 16.5514 20.4048 16.6488L19.2127 16.9468C19.0714 16.9821 18.9264 17 18.7808 17H17.618C17.2767 17 17 17.2767 17 17.618C17 17.8521 17.1323 18.0661 17.3416 18.1708L18.513 18.7565C18.8332 18.9166 19.1864 19 19.5445 19C20.1563 19 20.743 18.757 21.1756 18.3244L21.5 18L22.5 17L23.5 16C23.7761 15.7239 23.7761 15.2761 23.5 15C23.2239 14.7239 22.7761 14.7239 22.5 15Z"/>
</svg>
