<svg width="48" height="48" viewBox="0 0 48 48" fill="none" xmlns="http://www.w3.org/2000/svg">
<path d="M24 48C37.2548 48 48 37.2548 48 24C48 10.7452 37.2548 0 24 0C10.7452 0 0 10.7452 0 24C0 37.2548 10.7452 48 24 48Z" fill="#F0F0F0"/>
<path d="M18.7827 20.8696H47.7969C46.2628 9.09394 36.1938 0 24 0C22.208 0 20.4627 0.198094 18.7827 0.570469V20.8696H18.7827Z" fill="#D80027"/>
<path d="M12.5217 20.8695V2.91815C5.93178 6.51384 1.21409 13.1092 0.203186 20.8696H12.5217V20.8695Z" fill="#D80027"/>
<path d="M12.5217 27.1304H0.203186C1.21409 34.8907 5.93178 41.4862 12.5217 45.0817L12.5217 27.1304Z" fill="#D80027"/>
<path d="M18.7827 27.1305V47.4295C20.4627 47.8019 22.208 48 24 48C36.1938 48 46.2628 38.9061 47.7969 27.1304H18.7827V27.1305Z" fill="#D80027"/>
</svg>
