<svg width="48" height="48" viewBox="0 0 48 48" xmlns="http://www.w3.org/2000/svg">
<g clip-path="url(#clip0)">
<path d="M43.714 42.8572C44.7929 42.8572 45.7278 42.501 46.5226 41.7975L32.9234 28.1978C32.5972 28.4315 32.2809 28.6586 31.9822 28.8747C30.9645 29.6245 30.1385 30.2096 29.5042 30.6289C28.8701 31.0491 28.0263 31.4774 26.9731 31.9147C25.9191 32.3525 24.9372 32.5708 24.0264 32.5708H23.9997H23.973C23.0621 32.5708 22.0802 32.3526 21.0263 31.9147C19.9725 31.4774 19.1287 31.0491 18.4952 30.6289C17.861 30.2096 17.0355 29.6246 16.0172 28.8747C15.7335 28.6667 15.4188 28.4384 15.0786 28.1942L1.47679 41.7975C2.27148 42.501 3.207 42.8572 4.28588 42.8572H43.714Z"/>
<path d="M2.70565 19.6341C1.68803 18.9557 0.785628 18.1787 0 17.3034V37.9943L11.9863 26.008C9.58832 24.3339 6.49871 22.2117 2.70565 19.6341Z"/>
<path d="M45.3215 19.6341C41.6731 22.1035 38.5722 24.2293 36.0186 26.0128L48 37.9948V17.3034C47.2318 18.161 46.3391 18.9375 45.3215 19.6341Z"/>
<path d="M43.714 5.14279H4.28597C2.91044 5.14279 1.85292 5.60728 1.11208 6.53531C0.370639 7.46377 0.000526428 8.62491 0.000526428 10.0174C0.000526428 11.1422 0.491686 12.361 1.47357 13.674C2.45545 14.9865 3.50025 16.0175 4.60745 16.7674C5.21443 17.1962 7.04486 18.4688 10.0987 20.5845C11.7473 21.7269 13.181 22.7226 14.4129 23.5819C15.4631 24.3136 16.3687 24.9472 17.1164 25.4731C17.2023 25.5333 17.3372 25.6299 17.5164 25.758C17.7095 25.8966 17.9537 26.0726 18.2551 26.2902C18.8354 26.7099 19.3175 27.0491 19.7015 27.3083C20.0849 27.5676 20.5495 27.8572 21.0945 28.1787C21.6391 28.4999 22.1527 28.7414 22.6348 28.902C23.117 29.0625 23.5634 29.143 23.974 29.143H24.0007H24.0273C24.4379 29.143 24.8843 29.0625 25.3666 28.902C25.8486 28.7414 26.3618 28.5004 26.9068 28.1787C27.4513 27.8572 27.9153 27.567 28.3 27.3083C28.6839 27.0491 29.166 26.71 29.7464 26.2902C30.0472 26.0726 30.2914 25.8965 30.4845 25.7584C30.6637 25.6298 30.7986 25.5338 30.885 25.4731C31.4675 25.0678 32.3752 24.4367 33.5956 23.5893C35.8163 22.0464 39.0867 19.7754 43.4207 16.7674C44.7242 15.857 45.8132 14.7583 46.6884 13.473C47.562 12.1876 48 10.8394 48 9.42867C48 8.25001 47.5754 7.24146 46.7279 6.40145C45.8794 5.56249 44.8747 5.14279 43.714 5.14279Z"/>
</g>
<defs>
<clipPath id="clip0">
<rect width="48" height="48" fill="white"/>
</clipPath>
</defs>
</svg>
