<svg width="48" height="48" viewBox="0 0 48 48" fill="none" xmlns="http://www.w3.org/2000/svg">
<path d="M24 48C37.2548 48 48 37.2548 48 24C48 10.7452 37.2548 0 24 0C10.7452 0 0 10.7452 0 24C0 37.2548 10.7452 48 24 48Z" fill="#0052B4"/>
<path d="M24.0001 9.39133L24.7772 11.7828H27.2916L25.2573 13.2608L26.0344 15.6522L24.0001 14.1742L21.9657 15.6522L22.7428 13.2608L20.7086 11.7828H23.223L24.0001 9.39133Z" fill="#FFDA44"/>
<path d="M13.6701 13.6701L15.9107 14.8116L17.6887 13.0337L17.2952 15.5171L19.5357 16.6587L17.0522 17.0521L16.6588 19.5357L15.5172 17.2952L13.0338 17.6887L14.8118 15.9107L13.6701 13.6701Z" fill="#FFDA44"/>
<path d="M9.39142 24L11.7829 23.2229V20.7085L13.2608 22.7428L15.6523 21.9657L14.1742 24L15.6523 26.0343L13.2608 25.2573L11.7829 27.2916V24.7771L9.39142 24Z" fill="#FFDA44"/>
<path d="M13.6701 34.3299L14.8117 32.0893L13.0338 30.3114L15.5173 30.7049L16.6587 28.4644L17.0522 30.9479L19.5356 31.3413L17.2954 32.4829L17.6887 34.9663L15.9107 33.1884L13.6701 34.3299Z" fill="#FFDA44"/>
<path d="M24.0001 38.6087L23.2229 36.2172H20.7086L22.7429 34.7392L21.9657 32.348L24.0001 33.8258L26.0344 32.348L25.2573 34.7392L27.2916 36.2172H24.7771L24.0001 38.6087Z" fill="#FFDA44"/>
<path d="M34.33 34.33L32.0895 33.1885L30.3114 34.9664L30.7049 32.4828L28.4646 31.3413L30.948 30.9479L31.3414 28.4644L32.4829 30.7049L34.9663 30.3114L33.1883 32.0895L34.33 34.33Z" fill="#FFDA44"/>
<path d="M38.6087 24L36.2172 24.7771V27.2916L34.7393 25.2572L32.348 26.0343L33.826 24L32.348 21.9657L34.7394 22.7428L36.2172 20.7085V23.223L38.6087 24Z" fill="#FFDA44"/>
<path d="M34.33 13.6701L33.1884 15.9107L34.9664 17.6887L32.4828 17.2951L31.3414 19.5356L30.948 17.0521L28.4646 16.6586L30.7049 15.5171L30.3114 13.0338L32.0896 14.8117L34.33 13.6701Z" fill="#FFDA44"/>
</svg>
