<svg width="24" height="24" viewBox="0 0 24 24" xmlns="http://www.w3.org/2000/svg">
<path d="M12.1 4.5H18.8838C18.9972 4.5 19.023 4.341 18.9154 4.30513L12.1316 2.04387C12.0669 2.02229 12 2.07049 12 2.13874V4.4C12 4.45523 12.0448 4.5 12.1 4.5Z"/>
<path d="M11.9 19.5H5.11623C5.00279 19.5 4.97699 19.659 5.0846 19.6949L11.8684 21.9561C11.9331 21.9777 12 21.9295 12 21.8613V19.6C12 19.5448 11.9552 19.5 11.9 19.5Z"/>
<path d="M12 23C18.0751 23 23 18.0751 23 12C23 11.4956 22.9661 10.9992 22.9003 10.5128C22.8309 9.99919 22.343 9.66529 21.8299 9.73858C21.2516 9.8212 20.8745 10.3839 20.9411 10.9643C20.98 11.3041 21 11.6497 21 12C21 16.9706 16.9706 21 12 21C9.8567 21 7.88839 20.2508 6.34267 19H4.57572C4.15284 19 3.92914 19.486 4.22842 19.7848C6.2185 21.7715 8.96578 23 12 23Z" />
<path d="M2.17009 14.2614C1.65699 14.3347 1.1691 14.0008 1.09968 13.4872C1.03395 13.0008 1 12.5044 1 12C1 5.92487 5.92487 1 12 1C15.0342 1 17.7815 2.2285 19.7716 4.21524C20.0709 4.51401 19.8472 5 19.4243 5H17.6573C16.1116 3.7492 14.1433 3 12 3C7.02944 3 3 7.02944 3 12C3 12.3503 3.02001 12.6959 3.05895 13.0357C3.12545 13.6161 2.74842 14.1788 2.17009 14.2614Z" />
<path d="M11 6H13V7H15V9H11.4286C10.8763 9 10.4286 9.44772 10.4286 10C10.4286 10.5523 10.8763 11 11.4286 11H12.5714C14.2283 11 15.5714 12.3431 15.5714 14C15.5714 15.6569 14.2283 17 12.5714 17H13V18H11V17H9V15H12.5714C13.1237 15 13.5714 14.5523 13.5714 14C13.5714 13.4477 13.1237 13 12.5714 13H11.4286C9.77172 13 8.42857 11.6569 8.42857 10C8.42857 8.34315 9.77172 7 11.4286 7H11V6Z" />
</svg>
