<svg width="48" height="48" viewBox="0 0 48 48" fill="none" xmlns="http://www.w3.org/2000/svg">
<path d="M24 48C37.2548 48 48 37.2548 48 24C48 10.7452 37.2548 0 24 0C10.7452 0 0 10.7452 0 24C0 37.2548 10.7452 48 24 48Z" fill="#F0F0F0"/>
<path d="M47.7968 20.8696H27.1306H27.1305V0.203156C26.1057 0.06975 25.061 0 24 0C22.939 0 21.8943 0.06975 20.8696 0.203156V20.8694V20.8695H0.203156C0.06975 21.8943 0 22.939 0 24C0 25.0612 0.06975 26.1057 0.203156 27.1304H20.8694H20.8695V47.7968C21.8943 47.9303 22.939 48 24 48C25.061 48 26.1057 47.9303 27.1304 47.7968V27.1306V27.1305H47.7968C47.9303 26.1057 48 25.0612 48 24C48 22.939 47.9303 21.8943 47.7968 20.8696Z" fill="#D80027"/>
<path d="M14.6087 11.4783V8.34778H11.4783V11.4783H8.34778V14.6087H11.4783V17.7391H14.6087V14.6087H17.7391V11.4783H14.6087Z" fill="#D80027"/>
<path d="M36.5217 11.4783V8.34778H33.3913V11.4783H30.2609V14.6087H33.3913V17.7391H36.5217V14.6087H39.6522V11.4783H36.5217Z" fill="#D80027"/>
<path d="M14.6087 33.3913V30.2609H11.4783V33.3913H8.34778V36.5217H11.4783V39.6522H14.6087V36.5217H17.7391V33.3913H14.6087Z" fill="#D80027"/>
<path d="M36.5217 33.3913V30.2609H33.3913V33.3913H30.2609V36.5217H33.3913V39.6522H36.5217V36.5217H39.6522V33.3913H36.5217Z" fill="#D80027"/>
</svg>
