<svg width="13" height="12" viewBox="0 0 13 12" xmlns="http://www.w3.org/2000/svg">
<g clip-path="url(#clip0)">
<path d="M11.532 4.0996H6.93364V0.633478C6.93364 0.383025 6.72844 0.179306 6.47622 0.179306H5.60952C5.35728 0.179306 5.1521 0.383048 5.1521 0.633478V4.0996H0.553724C0.248418 4.0996 0 4.34624 0 4.64942V5.83466C0 6.13784 0.248418 6.38445 0.553724 6.38445H0.633391L1.25743 10.7881C1.34085 11.3768 1.85528 11.8207 2.45399 11.8207H9.63168C10.2304 11.8207 10.7448 11.3768 10.8282 10.7881L11.4523 6.38443H11.532C11.8373 6.38443 12.0857 6.1378 12.0857 5.83463V4.6494C12.0857 4.34624 11.8373 4.0996 11.532 4.0996ZM5.63357 0.657384H6.45212V5.22313H5.63357V0.657384V0.657384ZM10.3515 10.7215C10.3013 11.0756 9.99184 11.3427 9.6317 11.3427H2.45399C2.09385 11.3427 1.78441 11.0756 1.73423 10.7215L1.11963 6.38443H10.9661L10.3515 10.7215ZM11.6042 5.83463C11.6042 5.87417 11.5718 5.90635 11.532 5.90635H0.553724C0.513903 5.90635 0.481493 5.87417 0.481493 5.83463V4.6494C0.481493 4.60986 0.513903 4.57768 0.553724 4.57768H5.15208V5.24701C5.15208 5.49746 5.35728 5.70118 5.6095 5.70118H6.4762C6.72844 5.70118 6.93361 5.49744 6.93361 5.24701V4.57768H11.532C11.5718 4.57768 11.6042 4.60986 11.6042 4.6494V5.83463H11.6042Z"/>
<path d="M2.60011 6.94423C2.46714 6.94423 2.35936 7.05127 2.35936 7.18327V10.5299C2.35936 10.6619 2.46714 10.7689 2.60011 10.7689C2.73307 10.7689 2.84085 10.6619 2.84085 10.5299V7.18327C2.84088 7.05127 2.73307 6.94423 2.60011 6.94423Z"/>
<path d="M3.97721 6.94423C3.84425 6.94423 3.73647 7.05127 3.73647 7.18327V10.5299C3.73647 10.6619 3.84425 10.7689 3.97721 10.7689C4.11018 10.7689 4.21796 10.6619 4.21796 10.5299V7.18327C4.21796 7.05127 4.11018 6.94423 3.97721 6.94423Z"/>
<path d="M5.3543 6.94423C5.22134 6.94423 5.11356 7.05127 5.11356 7.18327V10.5299C5.11356 10.6619 5.22134 10.7689 5.3543 10.7689C5.48727 10.7689 5.59505 10.6619 5.59505 10.5299V7.18327C5.59505 7.05127 5.48727 6.94423 5.3543 6.94423Z"/>
<path d="M6.73141 6.94423C6.59847 6.94423 6.49066 7.05127 6.49066 7.18327V10.5299C6.49066 10.6619 6.59844 10.7689 6.73141 10.7689C6.86435 10.7689 6.97215 10.6619 6.97215 10.5299V7.18327C6.97215 7.05127 6.86435 6.94423 6.73141 6.94423Z"/>
<path d="M8.1085 6.94423C7.97556 6.94423 7.86775 7.05127 7.86775 7.18327V10.5299C7.86775 10.6619 7.97553 10.7689 8.1085 10.7689C8.24144 10.7689 8.34924 10.6619 8.34924 10.5299V7.18327C8.34924 7.05127 8.24144 6.94423 8.1085 6.94423Z"/>
<path d="M9.4856 6.94423C9.35266 6.94423 9.24486 7.05127 9.24486 7.18327V7.37461C9.24486 7.50661 9.35266 7.61365 9.4856 7.61365C9.61855 7.61365 9.72635 7.50661 9.72635 7.37461V7.18327C9.72635 7.05127 9.61855 6.94423 9.4856 6.94423Z"/>
<path d="M9.4856 8.04385C9.35266 8.04385 9.24486 8.15089 9.24486 8.28289V10.5299C9.24486 10.6619 9.35266 10.7689 9.4856 10.7689C9.61855 10.7689 9.72635 10.6619 9.72635 10.5299V8.28289C9.72635 8.15089 9.61855 8.04385 9.4856 8.04385Z"/>
</g>
<defs>
<clipPath id="clip0">
<rect width="12.0857" height="12" fill="white"/>
</clipPath>
</defs>
</svg>
