<svg width="48" height="48" viewBox="0 0 48 48" fill="none" xmlns="http://www.w3.org/2000/svg">
<path d="M24 48C37.2548 48 48 37.2548 48 24C48 10.7452 37.2548 0 24 0C10.7452 0 0 10.7452 0 24C0 37.2548 10.7452 48 24 48Z" fill="#F0F0F0"/>
<path d="M33.0369 18.7826H27.0122L24 13.5652L20.9879 18.7826H14.9632L17.9758 24L14.9632 29.2174H20.9879L24 34.4347L27.0122 29.2174H33.0369L30.0243 24L33.0369 18.7826ZM27.7008 24L25.8506 27.2051H22.1498L20.2993 24L22.1497 20.7949H25.8505L27.7008 24ZM24 17.5897L24.6887 18.7825H23.3115L24 17.5897ZM18.4487 20.7949H19.8261L19.1374 21.9877L18.4487 20.7949ZM18.4487 27.2051L19.1375 26.0122L19.8262 27.2051H18.4487ZM24 30.4102L23.3114 29.2174H24.6887L24 30.4102ZM29.5514 27.2051H28.174L28.8628 26.0122L29.5514 27.2051ZM28.174 20.7949H29.5514L28.8627 21.9877L28.174 20.7949Z" fill="#0052B4"/>
<path d="M38.9397 5.21738H9.0603C6.87002 6.96188 4.99165 9.08081 3.52258 11.4783H44.4775C43.0083 9.08091 41.1299 6.96188 38.9397 5.21738Z" fill="#0052B4"/>
<path d="M9.0603 42.7826H38.9396C41.1299 41.0381 43.0083 38.9192 44.4774 36.5217H3.52258C4.99174 38.9191 6.87011 41.0381 9.0603 42.7826Z" fill="#0052B4"/>
</svg>
