<svg width="24" height="24" viewBox="0 0 24 24" xmlns="http://www.w3.org/2000/svg">
<g clip-path="url(#clip0)">
<path d="M21.0701 2.86778H2.93482C1.31595 2.86778 0 4.18374 0 5.80261V18.1974C0 19.8163 1.31595 21.1322 2.93482 21.1322H21.0652C22.684 21.1322 24 19.8163 24 18.1974V5.80757C24.005 4.1887 22.689 2.86778 21.0701 2.86778ZM22.6642 18.1974C22.6642 19.0764 21.9491 19.7914 21.0701 19.7914H2.93482C2.05587 19.7914 1.34078 19.0764 1.34078 18.1974V5.80757C1.34078 4.92861 2.05587 4.21353 2.93482 4.21353H21.0652C21.9441 4.21353 22.6592 4.92861 22.6592 5.80757V18.1974H22.6642Z" />
<path d="M15.1359 11.8461L21.0056 6.58225C21.2787 6.33396 21.3035 5.91186 21.0552 5.63377C20.807 5.36065 20.3849 5.33582 20.1068 5.58411L12.0124 12.8492L10.4333 11.4389C10.4283 11.4339 10.4233 11.4289 10.4233 11.424C10.3886 11.3892 10.3538 11.3594 10.3141 11.3296L3.88827 5.57915C3.61018 5.33085 3.18808 5.35568 2.93979 5.63377C2.6915 5.91186 2.71633 6.33396 2.99441 6.58225L8.93358 11.8908L3.01924 17.4277C2.75109 17.681 2.73619 18.103 2.98945 18.3762C3.12353 18.5152 3.3023 18.5897 3.48107 18.5897C3.64494 18.5897 3.80881 18.5301 3.93793 18.4109L9.94165 12.7945L11.5705 14.2495C11.6996 14.3638 11.8585 14.4184 12.0174 14.4184C12.1763 14.4184 12.3402 14.3588 12.4643 14.2446L14.1378 12.7449L20.1068 18.4159C20.2359 18.54 20.4047 18.5996 20.5686 18.5996C20.7474 18.5996 20.9212 18.5301 21.0552 18.3911C21.3085 18.1229 21.2986 17.6958 21.0304 17.4426L15.1359 11.8461Z" />
</g>
<defs>
<clipPath id="clip0">
<rect width="24" height="24" fill="white"/>
</clipPath>
</defs>
</svg>
