<svg width="96" height="96" viewBox="0 0 96 96" fill="none" xmlns="http://www.w3.org/2000/svg">
<path d="M67.6875 83.9998V90.1875C67.6875 91.7623 66.4502 93 64.875 93H53.625C52.0498 93 50.8125 91.7623 50.8125 90.1875V87.375H39.5625V90.1875C39.5625 91.7623 38.3252 93 36.75 93H25.5C23.9248 93 22.6875 91.7623 22.6875 90.1875V83.9437C18.6936 81.8623 15.0939 78.9375 12.3373 75.3937C10.3687 72.8061 7.72519 70.7812 4.74375 69.4875C2.6625 68.5873 0 66.5625 0 62.0625V56.9998C0 52.8373 3.05625 49.2936 6.88125 48.2811C7.33144 46.7059 7.95 45.1873 8.68125 43.6121L0.84375 35.2309C-0.28125 34.1621 -0.28125 32.3621 0.84375 31.2934C7.03106 25.0496 16.725 23.7561 24.2062 28.1996C26.6812 27.1309 29.2123 26.3432 31.7436 25.8936L47.9998 26.7934L64.0873 27.6373C75.5062 31.9123 83.5125 41.8121 84.5811 53.3996C85.8187 66.1686 78.9937 78.2625 67.6875 83.9998Z" fill="#56CCF2"/>
<path d="M67.6875 83.9998V90.1875C67.6875 91.7624 66.4502 93 64.875 93H53.625C52.0498 93 50.8125 91.7624 50.8125 90.1875V87.375H48V26.7936L64.0875 27.6375C75.5064 31.9125 83.5127 41.8123 84.5812 53.3998C85.8187 66.1686 78.9937 78.2625 67.6875 83.9998Z" fill="#2D9CDB"/>
<path d="M81.9375 59.25C80.3829 59.25 79.125 57.9921 79.125 56.4375C79.125 54.8829 80.3829 53.625 81.9375 53.625C86.5901 53.625 90.375 49.8401 90.375 45.1875C90.375 43.6329 91.6329 42.375 93.1875 42.375C94.7421 42.375 96 43.6329 96 45.1875C96 52.9412 89.6912 59.25 81.9375 59.25Z" fill="#2D9CDB"/>
<path d="M25.5 53.625C27.0533 53.625 28.3125 52.3658 28.3125 50.8125C28.3125 49.2592 27.0533 48 25.5 48C23.9467 48 22.6875 49.2592 22.6875 50.8125C22.6875 52.3658 23.9467 53.625 25.5 53.625Z" fill="#5C5F66"/>
<path d="M58.0416 42.375H36.75C35.1954 42.375 33.9375 41.1171 33.9375 39.5625C33.9375 38.0079 35.1954 36.75 36.75 36.75H58.0416C59.5961 36.75 60.8541 38.0079 60.8541 39.5625C60.8541 41.1171 59.5961 42.375 58.0416 42.375Z" fill="#5C5F66"/>
<path d="M58.0416 36.75H48V42.375H58.0416C59.5961 42.375 60.8541 41.1171 60.8541 39.5625C60.8541 38.0079 59.5961 36.75 58.0416 36.75Z" fill="#53565C"/>
<path d="M48 42.375C37.1454 42.375 28.3125 33.5421 28.3125 22.6875C28.3125 11.8329 37.1454 3 48 3C58.8546 3 67.6875 11.8329 67.6875 22.6875C67.6875 33.5421 58.8546 42.375 48 42.375Z" fill="#FCB33B"/>
<path d="M67.6875 22.6875C67.6875 11.8329 58.8546 3 48 3V42.375C58.8546 42.375 67.6875 33.5421 67.6875 22.6875Z" fill="#F69838"/>
<path d="M48 8.625C40.2463 8.625 33.9375 14.9338 33.9375 22.6875C33.9375 30.4412 40.2463 36.75 48 36.75C55.7537 36.75 62.0625 30.4412 62.0625 22.6875C62.0625 14.9338 55.7537 8.625 48 8.625Z" fill="#FFDE33"/>
<path d="M62.0625 22.6875C62.0625 14.9338 55.7537 8.625 48 8.625V36.75C55.7537 36.75 62.0625 30.4412 62.0625 22.6875Z" fill="#FFBC33"/>
<path d="M53.625 25.5H48C46.4454 25.5 45.1875 24.2421 45.1875 22.6875V17.0625C45.1875 15.5079 46.4454 14.25 48 14.25C49.5546 14.25 50.8125 15.5079 50.8125 17.0625V19.875H53.625C55.1796 19.875 56.4375 21.1329 56.4375 22.6875C56.4375 24.2421 55.1796 25.5 53.625 25.5Z" fill="#FCB33B"/>
<path d="M53.625 25.5C55.1796 25.5 56.4375 24.2421 56.4375 22.6875C56.4375 21.1329 55.1796 19.875 53.625 19.875H50.8125V17.0625C50.8125 15.5079 49.5546 14.25 48 14.25V25.5H53.625Z" fill="#F69838"/>
</svg>
