<svg width="49" height="48" viewBox="0 0 49 48" fill="none" xmlns="http://www.w3.org/2000/svg">
<path d="M28.328 35.8443H21.2198V43.8055H28.328V35.8443Z" fill="#FDCC9B"/>
<path d="M21.22 36.7819C21.22 36.7819 24.2101 38.6859 28.3283 38.2448V35.8441H21.22V36.7819Z" fill="#FCBC85"/>
<path d="M10.97 27.4566C12.8856 27.4566 14.4385 25.6849 14.4385 23.4995C14.4385 21.314 12.8856 19.5424 10.97 19.5424C9.0545 19.5424 7.50165 21.314 7.50165 23.4995C7.50165 25.6849 9.0545 27.4566 10.97 27.4566Z" fill="#FCBC85"/>
<path d="M38.578 27.4566C40.4935 27.4566 42.0464 25.6849 42.0464 23.4995C42.0464 21.314 40.4935 19.5424 38.578 19.5424C36.6624 19.5424 35.1096 21.314 35.1096 23.4995C35.1096 25.6849 36.6624 27.4566 38.578 27.4566Z" fill="#FCBC85"/>
<path d="M38.564 15.9412C38.564 10.1127 34.299 5.84746 24.774 5.84746C15.249 5.84746 10.9841 10.1124 10.9841 15.9412C10.9841 21.77 9.989 37.1238 24.774 37.1238C39.5591 37.1238 38.564 21.77 38.564 15.9412Z" fill="#FDCC9B"/>
<path d="M18.0573 24.1867C18.8817 24.1867 19.55 23.4548 19.55 22.5518C19.55 21.6489 18.8817 20.9169 18.0573 20.9169C17.2329 20.9169 16.5646 21.6489 16.5646 22.5518C16.5646 23.4548 17.2329 24.1867 18.0573 24.1867Z" fill="#3B2519"/>
<path d="M17.4066 22.2764C17.6531 22.2764 17.853 22.0765 17.853 21.83C17.853 21.5834 17.6531 21.3836 17.4066 21.3836C17.16 21.3836 16.9602 21.5834 16.9602 21.83C16.9602 22.0765 17.16 22.2764 17.4066 22.2764Z" fill="white"/>
<path d="M15.6693 18.5001C16.3752 18.8532 17.5086 17.3007 20.1031 18.6513C20.5761 18.8974 20.8583 16.5455 18.0774 16.5455C15.6693 16.5455 15.2428 18.2871 15.6693 18.5001Z" fill="#51362A"/>
<path d="M31.675 24.1867C32.4995 24.1867 33.1678 23.4548 33.1678 22.5518C33.1678 21.6489 32.4995 20.9169 31.675 20.9169C30.8506 20.9169 30.1823 21.6489 30.1823 22.5518C30.1823 23.4548 30.8506 24.1867 31.675 24.1867Z" fill="#3B2519"/>
<path d="M31.0243 22.2764C31.2709 22.2764 31.4707 22.0765 31.4707 21.83C31.4707 21.5834 31.2709 21.3836 31.0243 21.3836C30.7778 21.3836 30.5779 21.5834 30.5779 21.83C30.5779 22.0765 30.7778 22.2764 31.0243 22.2764Z" fill="white"/>
<path d="M33.8787 18.5001C33.1729 18.8532 32.0395 17.3007 29.445 18.6513C28.972 18.8974 28.6898 16.5455 31.471 16.5455C33.8787 16.5455 34.3051 18.2871 33.8787 18.5001Z" fill="#51362A"/>
<path d="M24.774 28.3025C23.2989 28.3025 22.4105 27.2007 22.4105 27.7337C22.4105 28.2669 22.837 29.2799 24.774 29.2799C26.711 29.2799 27.1375 28.2669 27.1375 27.7337C27.1375 27.2005 26.2488 28.3025 24.774 28.3025Z" fill="#FCBC85"/>
<path d="M24.774 33.2041C24.2638 33.2041 23.9564 32.823 23.9564 33.0075C23.9564 33.1921 24.1039 33.5422 24.774 33.5422C25.4441 33.5422 25.5913 33.1921 25.5913 33.0075C25.5913 32.823 25.284 33.2041 24.774 33.2041Z" fill="#FCBC85"/>
<path d="M24.774 31.8459C22.4361 31.8459 21.0275 30.8938 21.0275 31.1352C21.0275 31.3765 21.7036 32.3259 24.774 32.3259C27.8444 32.3259 28.5205 31.3765 28.5205 31.1352C28.5202 30.8938 27.1119 31.8459 24.774 31.8459Z" fill="#F7945E"/>
<path d="M24.774 39.0428V47.9993H7.50165C7.50165 44.374 16.5996 39.0428 24.774 39.0428Z" fill="#F7941E"/>
<path d="M24.774 39.0428V47.9993H42.0464C42.0464 44.374 32.9484 39.0428 24.774 39.0428Z" fill="#F7941E"/>
<path d="M24.774 39.0428C23.0354 39.0428 21.2551 39.2859 19.5292 39.7006C19.5408 39.7158 21.4435 42.1705 24.774 42.1705C27.8582 42.1705 29.9086 40.0684 30.2058 39.7451C28.4216 39.3023 26.5756 39.0428 24.774 39.0428Z" fill="#F36C21"/>
<path d="M21.2198 39.3529C21.2198 39.3529 22.2593 40.6422 24.7738 40.6422C27.2882 40.6422 28.328 39.3529 28.328 39.3529C28.328 39.3529 24.6408 38.0105 21.2198 39.3529Z" fill="#FDCC9B"/>
<path d="M36.1114 4.60435C36.1114 4.60435 30.9936 -1.8996 20.3565 0.55268C9.71959 3.00472 8.92256 9.40227 9.24248 15.6264C9.56241 21.8508 10.4153 25.5023 11.4242 25.0511C12.433 24.5996 11.908 20.4911 12.0147 19.5429C12.1213 18.5948 13.0809 14.3068 19.5502 14.9467C26.0194 15.5865 31.4709 13.2407 31.4709 13.2407C31.4709 13.2407 33.6654 16.0146 35.1096 16.5461C37.9954 17.6079 37.0489 24.6881 38.1797 24.6881C39.3104 24.6881 44.8546 8.33609 36.1114 4.60435Z" fill="#51362A"/>
</svg>
