<svg width="49" height="48" viewBox="0 0 49 48" fill="none" xmlns="http://www.w3.org/2000/svg">
<path d="M28.5237 35.731H21.3488V43.7671H28.5237V35.731Z" fill="#FDCC9B"/>
<path d="M21.3488 36.6776C21.3488 36.6776 24.3669 38.5995 28.5237 38.1546V35.731H21.3488V36.6776Z" fill="#FCBC85"/>
<path d="M11.0037 27.2646C12.9372 27.2646 14.5046 25.4763 14.5046 23.2704C14.5046 21.0644 12.9372 19.2761 11.0037 19.2761C9.07014 19.2761 7.50272 21.0644 7.50272 23.2704C7.50272 25.4763 9.07014 27.2646 11.0037 27.2646Z" fill="#FCBC85"/>
<path d="M38.8696 27.2646C40.8031 27.2646 42.3706 25.4763 42.3706 23.2704C42.3706 21.0644 40.8031 19.2761 38.8696 19.2761C36.9361 19.2761 35.3687 21.0644 35.3687 23.2704C35.3687 25.4763 36.9361 27.2646 38.8696 27.2646Z" fill="#FCBC85"/>
<path d="M38.8557 15.6412C38.8557 9.7577 34.5507 5.45297 24.9364 5.45297C15.322 5.45297 11.0171 9.75794 11.0171 15.6412C11.0171 21.5247 10.0126 37.0225 24.9364 37.0225C39.8601 37.0225 38.8557 21.5249 38.8557 15.6412Z" fill="#FDCC9B"/>
<path d="M18.1567 23.9643C18.9888 23.9643 19.6634 23.2255 19.6634 22.314C19.6634 21.4026 18.9888 20.6638 18.1567 20.6638C17.3245 20.6638 16.6499 21.4026 16.6499 22.314C16.6499 23.2255 17.3245 23.9643 18.1567 23.9643Z" fill="#3B2519"/>
<path d="M17.4998 22.036C17.7487 22.036 17.9504 21.8343 17.9504 21.5855C17.9504 21.3366 17.7487 21.1349 17.4998 21.1349C17.251 21.1349 17.0493 21.3366 17.0493 21.5855C17.0493 21.8343 17.251 22.036 17.4998 22.036Z" fill="white"/>
<path d="M15.7463 18.2241C16.4588 18.5805 17.6028 17.0134 20.2216 18.3767C20.6991 18.6252 20.9839 16.2512 18.1769 16.2512C15.7463 16.2512 15.3157 18.0091 15.7463 18.2241Z" fill="#86461B"/>
<path d="M31.9022 23.9643C32.7343 23.9643 33.4089 23.2255 33.4089 22.314C33.4089 21.4026 32.7343 20.6638 31.9022 20.6638C31.07 20.6638 30.3954 21.4026 30.3954 22.314C30.3954 23.2255 31.07 23.9643 31.9022 23.9643Z" fill="#3B2519"/>
<path d="M31.2454 22.036C31.4942 22.036 31.6959 21.8343 31.6959 21.5855C31.6959 21.3366 31.4942 21.1349 31.2454 21.1349C30.9965 21.1349 30.7948 21.3366 30.7948 21.5855C30.7948 21.8343 30.9965 22.036 31.2454 22.036Z" fill="white"/>
<path d="M34.1265 18.2241C33.414 18.5805 32.27 17.0134 29.6512 18.3767C29.1738 18.6252 28.8889 16.2512 31.6962 16.2512C34.1265 16.2512 34.5569 18.0091 34.1265 18.2241Z" fill="#86461B"/>
<path d="M24.9364 28.1184C23.4475 28.1184 22.5507 27.0061 22.5507 27.5443C22.5507 28.0823 22.9813 29.1048 24.9364 29.1048C26.8915 29.1048 27.3221 28.0823 27.3221 27.5443C27.3221 27.0064 26.4251 28.1184 24.9364 28.1184Z" fill="#FCBC85"/>
<path d="M24.9364 33.0663C24.4213 33.0663 24.1111 32.6816 24.1111 32.8679C24.1111 33.0541 24.26 33.4078 24.9364 33.4078C25.6127 33.4078 25.7614 33.0541 25.7614 32.8679C25.7614 32.6816 25.4512 33.0663 24.9364 33.0663Z" fill="#FCBC85"/>
<path d="M24.9364 31.6953C22.5765 31.6953 21.1547 30.7343 21.1547 30.9779C21.1547 31.2213 21.8372 32.1798 24.9364 32.1798C28.0355 32.1798 28.718 31.2213 28.718 30.9779C28.7178 30.7341 27.2962 31.6953 24.9364 31.6953Z" fill="#F7945E"/>
<path d="M24.9364 38.9596V48.0001H7.50171C7.50171 44.341 16.685 38.9596 24.9364 38.9596Z" fill="#D58E64"/>
<path d="M24.9364 38.9596V48.0001H42.3708C42.3708 44.341 33.1873 38.9596 24.9364 38.9596Z" fill="#D58E64"/>
<path d="M24.9364 38.9596C23.1814 38.9596 21.3844 39.2049 19.6424 39.6237C19.6541 39.6391 21.5748 42.1166 24.9364 42.1166C28.0495 42.1166 30.1191 39.995 30.4191 39.6684C28.6182 39.2215 26.7546 38.9596 24.9364 38.9596Z" fill="#BF805A"/>
<path d="M21.3488 39.2725C21.3488 39.2725 22.3981 40.574 24.9361 40.574C27.4742 40.574 28.5237 39.2725 28.5237 39.2725C28.5237 39.2725 24.8016 37.9175 21.3488 39.2725Z" fill="#FDCC9B"/>
<path d="M24.9362 33.955V37.2915C17.4385 37.2915 14.9635 33.2938 14.2302 32.1796C13.6867 31.3528 17.7578 35.0852 21.3488 35.0852C22.9273 35.0852 22.8556 33.955 24.9362 33.955Z" fill="#86461B"/>
<path d="M24.9361 33.955V37.2915C32.434 37.2915 34.909 33.2938 35.642 32.1796C36.1856 31.3528 32.1145 35.0852 28.5235 35.0852C26.9452 35.0852 27.017 33.955 24.9361 33.955Z" fill="#86461B"/>
<path d="M25.0306 11.7668V6.10352e-05C12.7388 6.10352e-05 10.443 4.59207 9.86886 13.2018C9.29477 21.8117 10.5909 24.7756 11.4496 24.7647C12.3083 24.7534 11.8467 14.8938 13.0259 12.7712C15.1785 8.89679 19.0263 11.7668 25.0306 11.7668Z" fill="#86461B"/>
<path d="M25.0306 11.7668V6.10352e-05C37.3223 6.10352e-05 39.6182 4.59207 40.1923 13.2018C40.7664 21.8117 39.4703 24.7756 38.6116 24.7647C37.7529 24.7534 38.2145 14.8938 37.0353 12.7712C34.8829 8.89679 31.0349 11.7668 25.0306 11.7668Z" fill="#86461B"/>
<path d="M17.2943 40.3011C11.8741 42.1322 7.50272 45.4755 7.50272 48.0001H17.2948V40.3011H17.2943Z" fill="#744A25"/>
<path d="M17.8151 48.0001V39.7487C17.8151 39.7487 16.416 40.2869 15.9317 40.5378L14.5038 47.9998H17.8151V48.0001Z" fill="#573514"/>
<path d="M32.5793 40.3011C37.9995 42.1322 42.3708 45.4755 42.3708 48.0001H32.5788V40.3011H32.5793Z" fill="#744A25"/>
<path d="M32.0574 48.0001V39.7487C32.0574 39.7487 33.4565 40.2869 33.9407 40.5378L35.3687 47.9998H32.0574V48.0001Z" fill="#573514"/>
</svg>
