<svg width="128" height="128" viewBox="0 0 128 128" fill="none" xmlns="http://www.w3.org/2000/svg">
<path d="M77.8881 125.871H23.2232C19.1411 125.871 15.8337 122.562 15.8337 118.482V7.3895C15.8337 3.30954 19.1433 0 23.2232 0H77.8881C81.9703 0 85.2776 3.30954 85.2776 7.3895V118.479C85.2798 122.562 81.9703 125.871 77.8881 125.871Z" fill="#545E73"/>
<path d="M85.2798 13.0211H15.8337V99.8288H85.2798V13.0211Z" fill="#8697CB"/>
<path d="M50.5568 119.36C54.1525 119.36 57.0673 116.446 57.0673 112.85C57.0673 109.254 54.1525 106.339 50.5568 106.339C46.9611 106.339 44.0462 109.254 44.0462 112.85C44.0462 116.446 46.9611 119.36 50.5568 119.36Z" fill="#323A45"/>
<path d="M50.5568 8.68076H41.876C40.6759 8.68076 39.7058 7.71068 39.7058 6.51057C39.7058 5.31045 40.6759 4.34038 41.876 4.34038H50.5568C51.7569 4.34038 52.727 5.31045 52.727 6.51057C52.727 7.71068 51.7569 8.68076 50.5568 8.68076Z" fill="#323A45"/>
<path d="M59.2375 8.68076H57.0673C55.8672 8.68076 54.8972 7.71068 54.8972 6.51057C54.8972 5.31045 55.8672 4.34038 57.0673 4.34038H59.2375C60.4377 4.34038 61.4077 5.31045 61.4077 6.51057C61.4077 7.71068 60.4377 8.68076 59.2375 8.68076Z" fill="#323A45"/>
<path d="M86.1262 128C100.509 128 112.168 116.34 112.168 101.958C112.168 87.575 100.509 75.9154 86.1262 75.9154C71.7435 75.9154 60.0839 87.575 60.0839 101.958C60.0839 116.34 71.7435 128 86.1262 128Z" fill="#26B999"/>
<path d="M100.386 89.3272C99.3991 88.6414 98.0492 88.8845 97.3656 89.8697L85.2212 107.318L76.6511 100.282C75.7266 99.5206 74.3572 99.6573 73.5977 100.584C72.8359 101.511 72.9705 102.878 73.8993 103.637L84.2859 112.164C84.6765 112.483 85.1626 112.657 85.6618 112.657C85.7594 112.657 85.8592 112.65 85.9591 112.637C86.558 112.553 87.0963 112.225 87.4435 111.728L100.929 92.3503C101.613 91.365 101.37 90.0108 100.386 89.3272Z" fill="white"/>
</svg>
