<svg width="24" height="24" viewBox="0 0 24 24" xmlns="http://www.w3.org/2000/svg">
<path d="M2.72725 14.7273C4.23348 14.7273 5.45451 13.5062 5.45451 12C5.45451 10.4938 4.23348 9.27275 2.72725 9.27275C1.22103 9.27275 0 10.4938 0 12C0 13.5062 1.22103 14.7273 2.72725 14.7273Z" />
<path d="M12 14.7273C13.5062 14.7273 14.7273 13.5062 14.7273 12C14.7273 10.4938 13.5062 9.27275 12 9.27275C10.4938 9.27275 9.27275 10.4938 9.27275 12C9.27275 13.5062 10.4938 14.7273 12 14.7273Z" />
<path d="M21.2727 14.7273C22.779 14.7273 24 13.5062 24 12C24 10.4938 22.779 9.27275 21.2727 9.27275C19.7665 9.27275 18.5455 10.4938 18.5455 12C18.5455 13.5062 19.7665 14.7273 21.2727 14.7273Z" />
</svg>
