<svg width="48" height="48" viewBox="0 0 48 48" fill="none" xmlns="http://www.w3.org/2000/svg">
<g clip-path="url(#clip0)">
<path d="M24 48C37.2548 48 48 37.2548 48 24C48 10.7452 37.2548 0 24 0C10.7452 0 0 10.7452 0 24C0 37.2548 10.7452 48 24 48Z" fill="#F0F0F0"/>
<path d="M48 24C48 14.4849 42.4627 6.26344 34.4348 2.38144V45.6185C42.4627 41.7366 48 33.5151 48 24Z" fill="#D80027"/>
<path d="M0 24C0 33.5151 5.53734 41.7366 13.5652 45.6186V2.38144C5.53734 6.26344 0 14.4849 0 24Z" fill="#6DA544"/>
<path d="M17.7391 24C17.7391 27.4578 20.5422 30.2609 24 30.2609C27.4578 30.2609 30.2609 27.4578 30.2609 24V21.913H17.7391V24Z" fill="#6DA544"/>
<path d="M32.3477 19.8261H26.0868C26.0868 18.6735 25.1524 17.7391 23.9999 17.7391C22.8473 17.7391 21.9129 18.6735 21.9129 19.8261H15.652C15.652 20.9787 16.656 21.913 17.8084 21.913H17.739C17.739 23.0657 18.6733 24 19.8259 24C19.8259 25.1527 20.7603 26.087 21.9129 26.087H26.0868C27.2395 26.087 28.1738 25.1527 28.1738 24C29.3265 24 30.2608 23.0657 30.2608 21.913H30.1912C31.3439 21.913 32.3477 20.9787 32.3477 19.8261Z" fill="#FF9811"/>
</g>
<defs>
<clipPath id="clip0">
<rect width="48" height="48" fill="white"/>
</clipPath>
</defs>
</svg>
