<svg width="48" height="48" viewBox="0 0 48 48" fill="none" xmlns="http://www.w3.org/2000/svg">
<g clip-path="url(#clip0)">
<path d="M24 48C37.2548 48 48 37.2548 48 24C48 10.7452 37.2548 0 24 0C10.7452 0 0 10.7452 0 24C0 37.2548 10.7452 48 24 48Z" fill="#F0F0F0"/>
<path d="M47.8591 26.6087L47.8586 26.6079L47.8585 26.6087H47.8591Z" fill="#0052B4"/>
<path d="M47.8584 26.6087C47.8584 26.6085 47.8585 26.6083 47.8585 26.6079L21.5387 0.124786C20.3513 0.245818 19.1895 0.45338 18.0597 0.741099C7.67794 3.38438 0 24 0 24C0 24 33.5998 46.4845 37.433 43.8904C38.1999 43.3714 38.9353 42.8092 39.6354 42.2073L24.037 26.6087H47.8584Z" fill="#0052B4"/>
<path d="M41.7391 24L18.398 0.658966C7.84575 3.18244 0 12.6742 0 24C0 37.2548 10.7452 48 24 48C29.0277 48 33.6935 46.4529 37.5496 43.8104L17.7391 24H41.7391Z" fill="#D80027"/>
<path d="M22.8255 35.4369L19.8944 34.0582L21.4553 31.2195L18.2725 31.8284L17.8692 28.613L15.6523 30.9778L13.4354 28.613L13.0319 31.8284L9.84923 31.2194L11.4101 34.0582L8.47888 35.4369L11.4101 36.8154L9.84923 39.6542L13.0321 39.0454L13.4353 42.2606L15.6523 39.8958L17.8692 42.2606L18.2725 39.0454L21.4552 39.6543L19.8943 36.8156L22.8255 35.4369Z" fill="#F0F0F0"/>
<path d="M20.8696 13.3109L18.7377 12.3082L19.8729 10.2436L17.558 10.6865L17.2646 8.34778L15.6522 10.0678L14.0398 8.34778L13.7464 10.6865L11.4314 10.2436L12.5667 12.3082L10.4348 13.3109L15.6522 14.3545L20.8696 13.3109Z" fill="#F0F0F0"/>
<path d="M21.913 13.3109C21.913 16.7687 19.1099 19.5718 15.6521 19.5718C12.1944 19.5718 9.39124 16.7687 9.39124 13.3109" fill="#F0F0F0"/>
</g>
<defs>
<clipPath id="clip0">
<rect width="48" height="48" fill="white"/>
</clipPath>
</defs>
</svg>
