<svg width="48" height="48" viewBox="0 0 48 48" fill="none" xmlns="http://www.w3.org/2000/svg">
<path d="M48 24C48 37.2548 37.2548 48 24 48C10.7452 48 0 37.2548 0 24C0 24.0057 24 0.002625 24 0C37.2548 0 48 10.7452 48 24Z" fill="#0052B4"/>
<path d="M23.9358 24H24C24 23.9784 24 23.9574 24 23.9358C23.9786 23.9573 23.9573 23.9786 23.9358 24Z" fill="#F0F0F0"/>
<path d="M24 12.5217C24 8.29875 24 5.53172 24 0H23.996C10.743 0.00225 0 10.7465 0 24H12.5217V16.949L19.5728 24H23.9359C23.9572 23.9786 23.9787 23.9573 24.0001 23.9358C24.0001 22.3189 24.0001 20.8762 24.0001 19.5729L16.9489 12.5217H24Z" fill="#F0F0F0"/>
<path d="M12.1421 3.1304C8.3884 5.26781 5.26784 8.38837 3.13043 12.142V24H9.39134V9.3915V9.39131H24C24 7.41665 24 5.53547 24 3.1304H12.1421V3.1304Z" fill="#D80027"/>
<path d="M24 21.0487L15.4732 12.5218C15.4732 12.5218 12.5219 12.522 12.5219 12.5218V12.522L23.9999 24H24C24 24 24 21.965 24 21.0487Z" fill="#D80027"/>
<path d="M41.5622 17.8087L42.0802 19.403H43.7565L42.4004 20.3883L42.9184 21.9825L41.5622 20.9973L40.206 21.9825L40.724 20.3883L39.3677 19.403H41.0441L41.5622 17.8087Z" fill="#D80027"/>
<path d="M35.5698 29.2868L36.3469 31.6784H38.8614L36.827 33.1563L37.6042 35.5477L35.5698 34.0698L33.5354 35.5477L34.3126 33.1563L32.2783 31.6784H34.7927L35.5698 29.2868Z" fill="#D80027"/>
<path d="M35.7961 10.5043L36.4438 12.4973H38.5392L36.8438 13.7287L37.4914 15.7217L35.7961 14.4899L34.1009 15.7217L34.7485 13.7287L33.0533 12.4973H35.1486L35.7961 10.5043Z" fill="#D80027"/>
<path d="M30.0302 17.7391L30.8072 20.1306H33.3218L31.2874 21.6085L32.0646 24L30.0302 22.522L27.9958 24L28.773 21.6085L26.7386 20.1306H29.2531L30.0302 17.7391Z" fill="#D80027"/>
</svg>
