<svg width="24" height="24" viewBox="0 0 24 24" xmlns="http://www.w3.org/2000/svg">
<path d="M19.6827 10.459H19.3297V7.33223C19.3297 3.2908 16.0439 0 11.9975 0C7.95609 0 4.66529 3.28583 4.66529 7.33223C4.66529 7.70505 4.96355 8.00331 5.33637 8.00331C5.7092 8.00331 6.00746 7.70505 6.00746 7.33223C6.00746 4.03148 8.6918 1.34217 11.9975 1.34217C15.2983 1.34217 17.9876 4.02651 17.9876 7.33223V10.459H4.31732C3.60149 10.459 3.01988 11.0406 3.01988 11.7564V20.1127C3.01988 22.2552 4.76471 24 6.90721 24H17.0928C19.2353 24 20.9801 22.2552 20.9801 20.1127V11.7564C20.9801 11.0406 20.3985 10.459 19.6827 10.459ZM19.6379 20.1127C19.6379 21.5145 18.4996 22.6578 17.0928 22.6578H6.91218C5.51036 22.6578 4.36703 21.5195 4.36703 20.1127V11.8012H19.6379V20.1127Z" />
<path d="M12.0025 19.8393C13.3894 19.8393 14.5128 18.7109 14.5128 17.3289C14.5128 15.942 13.3844 14.8186 12.0025 14.8186C10.6156 14.8186 9.49212 15.947 9.49212 17.3289C9.49212 18.7109 10.6156 19.8393 12.0025 19.8393ZM12.0025 16.1558C12.6487 16.1558 13.1706 16.6827 13.1706 17.3239C13.1706 17.9652 12.6487 18.4971 12.0025 18.4971C11.3562 18.4971 10.8343 17.9702 10.8343 17.3289C10.8343 16.6877 11.3562 16.1558 12.0025 16.1558Z" />
</svg>
