<svg width="12" height="12" viewBox="0 0 12 12" xmlns="http://www.w3.org/2000/svg">
<g clip-path="url(#clip0)">
<path d="M11.6878 10.203L6.98242 5.4975L1.48492 0H1.05529L0.967559 0.222914C0.73602 0.811289 0.63709 1.41307 0.681504 1.96313C0.732129 2.59013 0.970324 3.13296 1.37038 3.53302L5.66202 7.82466L6.22808 7.25859L10.1957 11.6951C10.5904 12.0898 11.2697 12.1133 11.6878 11.6951C12.0993 11.2837 12.0993 10.6144 11.6878 10.203Z"/>
<path d="M3.6733 6.83067L0.312102 10.1919C-0.0992732 10.6032 -0.0992732 11.2726 0.312102 11.684C0.702899 12.0748 1.37895 12.1093 1.80425 11.684L5.16547 8.3228L3.6733 6.83067Z"/>
<path d="M11.4903 1.99803L9.58364 3.90467L9.08623 3.40728L10.9929 1.50062L10.4955 1.00323L8.58886 2.90987L8.09147 2.41248L9.99814 0.505836L9.50077 0.00846863L7.01382 2.49542C6.70957 2.79966 6.52791 3.20363 6.50222 3.63296C6.49573 3.74173 6.47107 3.84873 6.43018 3.95049L8.0457 5.56602C8.14746 5.52507 8.25448 5.50044 8.36323 5.49395C8.79256 5.46833 9.19653 5.28662 9.50077 4.98237L11.9877 2.49545L11.4903 1.99803Z"/>
</g>
<defs>
<clipPath id="clip0">
<rect width="12" height="12" fill="white"/>
</clipPath>
</defs>
</svg>
