<svg width="48" height="48" viewBox="0 0 48 48" fill="none" xmlns="http://www.w3.org/2000/svg">
<path d="M24 48C37.2548 48 48 37.2548 48 24C48 10.7452 37.2548 0 24 0C10.7452 0 0 10.7452 0 24C0 37.2548 10.7452 48 24 48Z" fill="#FFDA44"/>
<path d="M18.7827 20.8696H47.7968C46.2628 9.09394 36.1938 0 24 0C22.2081 0 20.4625 0.198094 18.7826 0.570469V20.8696H18.7827Z" fill="#0052B4"/>
<path d="M12.5217 20.8695V2.91815C5.93166 6.51384 1.21406 13.1092 0.203156 20.8696H12.5217V20.8695Z" fill="#0052B4"/>
<path d="M12.5216 27.1304H0.203156C1.21406 34.8907 5.93166 41.4862 12.5217 45.0817L12.5216 27.1304Z" fill="#0052B4"/>
<path d="M18.7826 27.1305V47.4295C20.4625 47.8019 22.2081 48 24 48C36.1938 48 46.2628 38.9061 47.7968 27.1304H18.7826V27.1305Z" fill="#0052B4"/>
</svg>
