<svg width="128" height="128" viewBox="0 0 128 128" xmlns="http://www.w3.org/2000/svg">
<path d="M64 0C28.7114 0 0 28.7089 0 64C0 99.2911 28.7114 128 64 128C99.2886 128 128 99.2911 128 64C128 28.7089 99.2886 0 64 0ZM64 123.077C31.4265 123.077 4.92308 96.5735 4.92308 64C4.92308 31.4265 31.4265 4.92308 64 4.92308C96.5735 4.92308 123.077 31.4265 123.077 64C123.077 96.5735 96.5735 123.077 64 123.077Z" />
<path d="M94.1588 37.7502L56.3274 80.3102L33.536 62.0775C32.4775 61.2283 30.9243 61.4031 30.0775 62.4615C29.2283 63.5249 29.4006 65.0732 30.4615 65.9225L55.0769 85.6148C55.5298 85.9766 56.0738 86.1538 56.6154 86.1538C57.2948 86.1538 57.9717 85.8732 58.4566 85.3268L97.8412 41.0191C98.7446 40.0049 98.6535 38.4468 97.6369 37.5459C96.6178 36.64 95.0646 36.7311 94.1588 37.7502Z" />
</svg>
