<svg width="12" height="12" viewBox="0 0 12 12" xmlns="http://www.w3.org/2000/svg">
<g clip-path="url(#clip0)">
<path d="M11.255 6.3923V10.9556H2.50096V6.3923H11.255V6.3923ZM12 5.64728H1.75594V11.7006H12V5.64728Z" />
<path d="M9.20618 5.64728L10.2548 6.6959C10.2469 6.73455 10.2315 6.7704 10.2315 6.81138C10.2315 7.14524 10.5021 7.41531 10.8359 7.41531C10.8769 7.41531 10.9123 7.39994 10.9509 7.39249L12 8.44111V5.64728H9.20618Z" />
<path d="M9.90463 9.27833C10.2384 9.27833 10.509 9.00774 10.509 8.67393C10.509 8.34013 10.2384 8.06953 9.90463 8.06953C9.57083 8.06953 9.30023 8.34013 9.30023 8.67393C9.30023 9.00774 9.57083 9.27833 9.90463 9.27833Z" />
<path d="M6.87797 10.2636C7.8876 10.2636 8.70607 9.5519 8.70607 8.67394C8.70607 7.79597 7.8876 7.08424 6.87797 7.08424C5.86833 7.08424 5.04987 7.79597 5.04987 8.67394C5.04987 9.5519 5.86833 10.2636 6.87797 10.2636Z" />
<path d="M3.85131 9.27788C4.18485 9.27788 4.45524 9.00749 4.45524 8.67394C4.45524 8.3404 4.18485 8.07001 3.85131 8.07001C3.51777 8.07001 3.24738 8.3404 3.24738 8.67394C3.24738 9.00749 3.51777 9.27788 3.85131 9.27788Z" />
<path d="M1.75594 8.44111L2.80456 7.39249C2.8432 7.40041 2.87906 7.41578 2.92004 7.41578C3.2539 7.41578 3.52397 7.14524 3.52397 6.81138C3.52397 6.7704 3.5086 6.73501 3.50069 6.69636L4.54977 5.64728H1.75594V8.44111V8.44111Z" />
<path d="M3.52444 10.5365C3.52444 10.2026 3.2539 9.93256 2.92004 9.93256C2.87906 9.93256 2.84367 9.94792 2.80502 9.95537L1.75594 8.90675V11.7006H4.54977L3.50115 10.652C3.50907 10.6133 3.52444 10.577 3.52444 10.5365Z" />
<path d="M10.8359 9.93209C10.5021 9.93209 10.232 10.2026 10.232 10.5365C10.232 10.5775 10.2473 10.6129 10.2553 10.6515L9.20618 11.7006H12V8.90675L10.9514 9.95537C10.9127 9.94746 10.8769 9.93209 10.8359 9.93209Z" />
<path d="M8.60177 4.56421C8.93531 4.56421 9.2057 4.29382 9.2057 3.96027C9.2057 3.62673 8.93531 3.35634 8.60177 3.35634C8.26822 3.35634 7.99783 3.62673 7.99783 3.96027C7.99783 4.29382 8.26822 4.56421 8.60177 4.56421Z" />
<path d="M1.05747 5.64728C1.05747 5.26173 1.37038 4.94882 1.75593 4.94882H2.13775L2.15498 4.88922L7.54569 1.93706L7.95778 2.0572C7.96942 2.09445 7.97361 2.13356 7.99364 2.16942C8.15382 2.46277 8.52074 2.5694 8.81409 2.40922C8.84948 2.38966 8.8737 2.3594 8.90303 2.33379L9.31605 2.45485L10.2552 4.16934L10.1346 4.5819C10.0979 4.59307 10.0587 4.59726 10.0229 4.61682C9.88646 4.69132 9.79566 4.81332 9.7477 4.94882H11.5316L10.3274 2.7496H10.3279L8.98545 0.299408L6.53432 1.64138H6.53479L2.45066 3.87785L0 5.21982L1.05747 7.15083V5.64728Z" />
<path d="M5.18303 4.02034C4.77746 4.24198 4.4855 4.57817 4.32159 4.94882H7.68957C7.66256 4.8068 7.62205 4.66758 7.55034 4.53673C7.128 3.76656 6.06867 3.53561 5.18303 4.02034Z" />
</g>
<defs>
<clipPath id="clip0">
<rect width="12" height="12" fill="white"/>
</clipPath>
</defs>
</svg>
