<svg width="12" height="12" viewBox="0 0 12 12" xmlns="http://www.w3.org/2000/svg">
<path d="M0.375088 3.37469H0.750177V5.62459H0.375088C0.167737 5.62459 0 5.45764 0 5.24966V3.74962C0 3.54337 0.167737 3.37469 0.375088 3.37469ZM11.6249 3.37469H11.2495V5.62459H11.6249C11.8319 5.62459 12 5.45764 12 5.24966V3.74962C12 3.54337 11.8324 3.37469 11.6249 3.37469ZM10.5 2.62499V9.37485C10.5 9.78955 10.1646 10.1249 9.74994 10.1249V10.8749C9.74994 11.2897 9.41463 11.6249 8.99992 11.6249H8.24974C7.8352 11.6249 7.49973 11.289 7.49973 10.8749V10.1249H4.50012V10.8749C4.50012 11.2897 4.16464 11.6249 3.7501 11.6249H3.00039C2.58569 11.6249 2.25037 11.289 2.25037 10.8749V10.1249C1.83583 10.1249 1.50035 9.78892 1.50035 9.37485V2.62499C1.50004 1.38276 2.50803 0.375084 3.7501 0.375084H8.25006C9.49228 0.375084 10.5 1.38245 10.5 2.62499ZM4.50012 1.87512H7.50004V1.1251H4.50012V1.87512ZM3.7501 8.62514C3.7501 8.20997 3.41463 7.87512 3.00039 7.87512C2.58585 7.87512 2.25037 8.21044 2.25037 8.62514C2.25037 9.03938 2.58585 9.37516 3.00039 9.37516C3.41447 9.37501 3.7501 9.03906 3.7501 8.62514ZM9.74994 8.62514C9.74994 8.20997 9.41463 7.87512 8.99992 7.87512C8.58522 7.87512 8.2499 8.21044 8.2499 8.62514C8.2499 9.03938 8.58569 9.37516 8.99992 9.37516C9.41478 9.37501 9.74994 9.03906 9.74994 8.62514ZM9.74994 2.62499H2.25006V7.12495H9.74994V2.62499Z" />
</svg>
