<svg width="24" height="24" viewBox="0 0 24 24" xmlns="http://www.w3.org/2000/svg">
<g clip-path="url(#clip0)">
<path d="M0.00195982 12.0027C0.0313307 12.4972 0.359305 12.9132 0.834134 13.0552L9.62581 15.7133L9.94889 21.7735C9.96357 22.0133 10.1251 22.2238 10.3552 22.3021C10.4188 22.3266 10.4874 22.3364 10.551 22.3364C10.7223 22.3364 10.8839 22.2679 11.0013 22.1357L14.1098 18.6944L18.5154 21.7441C18.7112 21.8811 18.9413 21.9546 19.1811 21.9546C19.7343 21.9546 20.214 21.563 20.3315 21.0147L23.9882 2.37889C24.0322 2.16351 23.949 1.93833 23.7826 1.80127C23.6112 1.65931 23.3812 1.62504 23.1756 1.70826L0.70686 10.8524C0.251612 11.058 -0.027411 11.5083 0.00195982 12.0027ZM11.065 20.2706L10.8643 16.4475L13.116 18.0042L11.065 20.2706ZM19.1615 20.7357L11.1433 15.1846L22.3874 4.30758L19.1615 20.7357ZM21.1539 3.82786L10.037 14.5825L1.25512 11.9293L21.1539 3.82786Z" />
</g>
<defs>
<clipPath id="clip0">
<rect width="24" height="24" fill="white"/>
</clipPath>
</defs>
</svg>
