<svg width="48" height="48" viewBox="0 0 48 48" fill="none" xmlns="http://www.w3.org/2000/svg">
<path d="M24 48C37.2548 48 48 37.2548 48 24C48 10.7452 37.2548 0 24 0C10.7452 0 0 10.7452 0 24C0 37.2548 10.7452 48 24 48Z" fill="#D80027"/>
<path d="M23.0173 19.6112L24.9865 22.3248L28.1756 21.2907L26.2033 24.002L28.1722 26.7155L24.9843 25.6775L23.0121 28.3887L23.0141 25.0361L19.826 23.9981L23.0152 22.9641L23.0173 19.6112Z" fill="#F0F0F0"/>
<path d="M17.6432 30.7826C13.8973 30.7826 10.8606 27.7459 10.8606 24C10.8606 20.2541 13.8973 17.2174 17.6432 17.2174C18.8111 17.2174 19.9101 17.5128 20.8695 18.0326C19.3643 16.5606 17.3059 15.6521 15.0345 15.6521C10.4241 15.6521 6.68671 19.3896 6.68671 23.9999C6.68671 28.6103 10.4241 32.3477 15.0345 32.3477C17.3061 32.3477 19.3644 31.4392 20.8695 29.9672C19.9101 30.4872 18.8111 30.7826 17.6432 30.7826Z" fill="#F0F0F0"/>
</svg>
