<svg width="48" height="48" viewBox="0 0 48 48" fill="none" xmlns="http://www.w3.org/2000/svg">
<path d="M48 24C48 37.2548 37.2548 48 24 48C10.7452 48 0 37.2548 0 24C8.24344 15.7566 15.2347 8.76525 24 0C37.2548 0 48 10.7452 48 24Z" fill="#D80027"/>
<path d="M24 24C24 10.7452 24 9.18262 24 0C10.7452 0 0 10.7452 0 24H24Z" fill="#0052B4"/>
<path d="M20.8696 14.0457L17.9385 15.4246L19.4993 18.2633L16.3166 17.6543L15.9132 20.8696L13.6964 18.5049L11.4794 20.8696L11.0761 17.6543L7.89332 18.2631L9.45407 15.4244L6.52307 14.0457L9.45416 12.6671L7.89332 9.82839L11.076 10.4373L11.4794 7.22205L13.6964 9.5868L15.9133 7.22205L16.3166 10.4373L19.4994 9.82839L17.9385 12.6672L20.8696 14.0457Z" fill="#F0F0F0"/>
<path d="M13.6967 18.5127C16.164 18.5127 18.1641 16.5126 18.1641 14.0453C18.1641 11.5779 16.164 9.57779 13.6967 9.57779C11.2293 9.57779 9.22919 11.5779 9.22919 14.0453C9.22919 16.5126 11.2293 18.5127 13.6967 18.5127Z" fill="#0052B4"/>
<path d="M13.6963 16.4262C12.3837 16.4262 11.3159 15.3583 11.3159 14.0457C11.3159 12.7331 12.3838 11.6652 13.6963 11.6652C15.0089 11.6652 16.0768 12.7331 16.0768 14.0457C16.0767 15.3583 15.0087 16.4262 13.6963 16.4262Z" fill="#F0F0F0"/>
</svg>
