<svg width="48" height="48" viewBox="0 0 48 48" fill="none" xmlns="http://www.w3.org/2000/svg">
<g clip-path="url(#clip0)">
<path d="M24 48C37.2548 48 48 37.2548 48 24C48 10.7452 37.2548 0 24 0C10.7452 0 0 10.7452 0 24C0 37.2548 10.7452 48 24 48Z" fill="#F0F0F0"/>
<path d="M22.9565 24H48C48 21.8338 47.7112 19.7353 47.1732 17.7391H22.9565V24Z" fill="#D80027"/>
<path d="M22.9565 11.4783H44.4774C43.0083 9.08091 41.1298 6.96188 38.9396 5.21738H22.9565V11.4783Z" fill="#D80027"/>
<path d="M24 48C29.6483 48 34.8399 46.0477 38.9396 42.7826H9.06036C13.1601 46.0477 18.3516 48 24 48Z" fill="#D80027"/>
<path d="M3.52256 36.5217H44.4774C45.6569 34.5971 46.5716 32.4934 47.1732 30.2608H0.826782C1.42838 32.4934 2.34309 34.5971 3.52256 36.5217Z" fill="#D80027"/>
<path d="M11.1172 3.74794H13.3043L11.27 5.22591L12.0471 7.61737L10.0128 6.13941L7.9785 7.61737L8.64975 5.55141C6.85856 7.04344 5.28862 8.7915 3.99487 10.7393H4.69566L3.40069 11.68C3.19894 12.0166 3.00544 12.3585 2.82 12.7055L3.43837 14.6087L2.28469 13.7705C1.99791 14.3781 1.73559 14.9993 1.49981 15.6336L2.18109 17.7306H4.69566L2.66128 19.2085L3.43837 21.6L1.40409 20.122L0.185531 21.0074C0.0635625 21.9878 0 22.9865 0 24H24C24 10.7452 24 9.18262 24 0C19.2589 0 14.8392 1.37531 11.1172 3.74794ZM12.0471 21.6L10.0128 20.122L7.9785 21.6L8.75559 19.2085L6.72122 17.7306H9.23578L10.0128 15.3391L10.7898 17.7306H13.3043L11.27 19.2085L12.0471 21.6ZM11.27 12.2172L12.0471 14.6087L10.0128 13.1307L7.9785 14.6087L8.75559 12.2172L6.72122 10.7393H9.23578L10.0128 8.34778L10.7898 10.7393H13.3043L11.27 12.2172ZM20.6558 21.6L18.6215 20.122L16.5872 21.6L17.3643 19.2085L15.3299 17.7306H17.8445L18.6215 15.3391L19.3985 17.7306H21.913L19.8787 19.2085L20.6558 21.6ZM19.8787 12.2172L20.6558 14.6087L18.6215 13.1307L16.5872 14.6087L17.3643 12.2172L15.3299 10.7393H17.8445L18.6215 8.34778L19.3985 10.7393H21.913L19.8787 12.2172ZM19.8787 5.22591L20.6558 7.61737L18.6215 6.13941L16.5872 7.61737L17.3643 5.22591L15.3299 3.74794H17.8445L18.6215 1.35647L19.3985 3.74794H21.913L19.8787 5.22591Z" fill="#0052B4"/>
</g>
<defs>
<clipPath id="clip0">
<rect width="48" height="48" fill="white"/>
</clipPath>
</defs>
</svg>
