<svg width="24" height="24" viewBox="0 0 24 24" xmlns="http://www.w3.org/2000/svg">
<path d="M23.8795 11.1802H22.728V5.88323C22.728 4.61335 21.6949 3.58025 20.4251 3.58025H18.8655L17.2695 0.710733C17.0263 0.272195 16.5634 0 16.0613 0C15.8273 0 15.5952 0.0603445 15.3902 0.174082L9.26519 3.58018H2.42347C1.15358 3.58018 0.120483 4.61328 0.120483 5.88316V21.6969C0.120483 22.9668 1.15358 23.9999 2.42347 23.9999H20.4251C21.6949 23.9999 22.728 22.9668 22.728 21.6969V17.0527H23.8795V11.1802ZM20.4251 4.5014C21.1344 4.5014 21.7138 5.04027 21.7916 5.72979H20.0607L19.3781 4.5014H20.4251ZM15.8384 0.979201C16.0544 0.858082 16.3451 0.942794 16.4643 1.15794L19.0068 5.72936H7.29568L15.8384 0.979201ZM21.8068 21.6969C21.8068 22.4588 21.1868 23.0788 20.425 23.0788H2.42347C1.66163 23.0788 1.04163 22.4588 1.04163 21.6969V5.88323C1.04163 5.1214 1.66163 4.5014 2.42347 4.5014H7.60887L5.39984 5.72986H2.71136C2.45665 5.72986 2.25075 5.9362 2.25075 6.19048C2.25075 6.44475 2.45665 6.65109 2.71136 6.65109H3.74309H20.5729H21.8068V11.1806H18.4385C16.8743 11.1806 15.6012 12.4537 15.6012 14.0179V14.2159C15.6012 15.7802 16.8743 17.0532 18.4385 17.0532H21.8068V21.6969ZM22.9583 16.1316H22.728H18.4385C17.3819 16.1316 16.5224 15.2721 16.5224 14.2154V14.0173C16.5224 12.9607 17.3818 12.1012 18.4385 12.1012H22.728H22.9583V16.1316ZM19.8493 14.1542C19.8493 14.7162 19.3942 15.1712 18.8323 15.1712C18.2704 15.1712 17.8153 14.7161 17.8153 14.1542C17.8153 13.5924 18.2704 13.1373 18.8323 13.1373C19.3943 13.1372 19.8493 13.5927 19.8493 14.1542Z" />
</svg>
