<svg width="128" height="128" viewBox="0 0 128 128" xmlns="http://www.w3.org/2000/svg">
<path d="M72.5898 108L45.3338 65.8668V32C45.3338 30.5273 44.1398 29.3333 42.667 29.3333H29.3338C27.861 29.3333 26.667 30.5273 26.667 32V65.9413L1.81651 108.187C0.627755 110.207 0.000755318 112.509 0.000755318 114.853C0.000505318 122.114 5.88651 128 13.147 128H61.707C64.2028 127.999 66.645 127.278 68.741 125.924C74.7533 122.037 76.4765 114.012 72.5898 108ZM61.707 122.667H13.147C11.7493 122.669 10.3763 122.296 9.17151 121.587C5.45251 119.399 4.21176 114.61 6.40026 110.891L31.6325 68.0188C31.8735 67.609 32.0005 67.1422 32.0005 66.6667V34.6668H40.0005V66.6667C40.0003 67.1805 40.1485 67.6833 40.4273 68.1148L68.1073 110.896C68.9058 112.13 69.3308 113.568 69.3313 115.037C69.3325 119.249 65.9193 122.665 61.707 122.667Z" />
<path d="M38.4138 77.528L33.8165 74.8268L11.1738 113.315C10.9323 113.725 10.805 114.193 10.8055 114.67C10.807 116.142 12.0023 117.335 13.475 117.333H32.0003V112H18.1338L38.4138 77.528Z" />
<path d="M121.563 61.3333H80.0005C74.1095 61.3333 69.3337 66.109 69.3337 72V114.667C69.3425 122.027 75.307 127.991 82.667 128H106.667C114.027 127.991 119.992 122.027 120 114.667V78.4373L126.118 72.3225C127.322 71.116 127.998 69.4813 127.999 67.7768C128.002 64.2203 125.12 61.3353 121.563 61.3333ZM122.344 68.552L115.449 75.448C114.949 75.948 114.667 76.6263 114.667 77.3333V114.667C114.667 119.085 111.086 122.667 106.667 122.667H82.6673C78.249 122.667 74.6673 119.085 74.6673 114.667V72C74.6673 69.0545 77.055 66.6668 80.0005 66.6668H121.563C121.857 66.6665 122.139 66.783 122.346 66.9908C122.777 67.4223 122.776 68.1213 122.344 68.552Z" />
<path d="M104.001 77.3333V112H96.0005V117.333H106.667C108.14 117.333 109.334 116.139 109.334 114.666V77.3333H104.001Z" />
<path d="M74.667 38.624V2.66675C74.667 1.194 73.4733 0 72.0005 0H53.3338C51.861 0 50.667 1.194 50.667 2.66675V39.3815C47.4125 40.3835 44.2818 41.7495 41.3338 43.4535L44.0005 48.0695C47.1335 46.2605 50.4975 44.8852 54.0005 43.9815C55.1785 43.6772 56.0015 42.6142 56.0005 41.3975V5.33325H69.3337V40.776C69.3342 42.056 70.2442 43.1552 71.5017 43.3947C80.8522 45.1822 89.26 50.243 95.2165 57.6695L99.3737 54.3307C93.0985 46.5105 84.411 40.9878 74.667 38.624Z" />
<path d="M113.334 37.3333C108.179 37.3333 104.001 41.512 104.001 46.6665C104.001 51.8213 108.179 55.9998 113.334 55.9998C118.488 55.9998 122.667 51.821 122.667 46.6665C122.667 41.512 118.488 37.3333 113.334 37.3333ZM113.334 50.6668C111.124 50.6668 109.334 48.876 109.334 46.6668C109.334 44.4575 111.124 42.6668 113.334 42.6668C115.543 42.6668 117.334 44.4575 117.334 46.6668C117.334 48.876 115.543 50.6668 113.334 50.6668Z" />
<path d="M104.001 18.6667C99.5823 18.6667 96.0005 22.2485 96.0005 26.6668C96.0005 31.085 99.5823 34.6668 104.001 34.6668C108.419 34.6668 112.001 31.085 112.001 26.6668C112.001 22.2485 108.419 18.6667 104.001 18.6667ZM104.001 29.3333C102.528 29.3333 101.334 28.1393 101.334 26.6665C101.334 25.1938 102.528 24 104.001 24C105.473 24 106.667 25.194 106.667 26.6668C106.667 28.1395 105.473 29.3333 104.001 29.3333Z" />
<path d="M9.33374 21.3333C4.17899 21.3333 0.000488281 25.512 0.000488281 30.6665C0.000488281 35.8213 4.17899 40 9.33374 40C14.4885 40 18.667 35.8213 18.667 30.6668C18.667 25.512 14.4885 21.3333 9.33374 21.3333ZM9.33374 34.6668C7.12449 34.6668 5.33374 32.876 5.33374 30.6668C5.33374 28.4575 7.12449 26.6668 9.33374 26.6668C11.543 26.6668 13.3337 28.4575 13.3337 30.6668C13.3337 32.876 11.543 34.6668 9.33374 34.6668Z" />
<path d="M21.3338 2.66675C16.9155 2.66675 13.3338 6.2485 13.3338 10.6667C13.3338 15.085 16.9155 18.6667 21.3338 18.6667C25.752 18.6667 29.3338 15.085 29.3338 10.6667C29.3338 6.2485 25.752 2.66675 21.3338 2.66675ZM21.3338 13.3332C19.861 13.3332 18.667 12.1392 18.667 10.6665C18.667 9.194 19.861 8 21.3338 8C22.8065 8 24.0005 9.194 24.0005 10.6667C24.0005 12.1395 22.8065 13.3332 21.3338 13.3332Z" />
<path d="M88.0005 77.3333H80.0005V82.6665H88.0005V77.3333Z" />
<path d="M85.3337 88H80.0005V93.3333H85.3337V88Z" />
<path d="M88.0005 98.6667H80.0005V104H88.0005V98.6667Z" />
<path d="M85.3337 109.333H80.0005V114.666H85.3337V109.333Z" />
<path d="M10.667 48H5.33376V53.3332H10.667V48Z" />
<path d="M18.667 61.3333H13.3338V66.6665H18.667V61.3333Z" />
<path d="M64.0003 72H58.667V77.3333H64.0003V72Z" />
<path d="M58.667 61.3333H53.3338V66.6665H58.667V61.3333Z" />
<path d="M56.0003 50.6667H50.667V56H56.0003V50.6667Z" />
<path d="M58.667 109.333H53.3338V114.666H58.667V109.333Z" />
<path d="M50.667 98.6667H45.3338V104H50.667V98.6667Z" />
</svg>
