<svg width="49" height="48" viewBox="0 0 49 48" fill="none" xmlns="http://www.w3.org/2000/svg">
<path d="M8.16961 28.3902C8.16961 28.3902 10.2449 32.6842 9.73243 36.3221C9.22039 39.96 6.33893 41.6736 5.10973 39.3952C5.10973 39.3952 -0.933832 47.9999 25.0846 47.9999V24.4624L8.16961 28.3902Z" fill="#D65128"/>
<path d="M42.1617 27.3271C42.1617 27.3271 39.5623 32.6844 40.0748 36.3221C40.5868 39.96 43.4683 41.6736 44.6975 39.3952C44.6975 39.3952 50.741 47.9999 24.7226 47.9999V24.4624L42.1617 27.3271Z" fill="#D65128"/>
<path d="M28.4991 36.3221H21.6701V43.9705H28.4991V36.3221Z" fill="#FDCC9B"/>
<path d="M21.6701 37.223C21.6701 37.223 24.5425 39.0523 28.4989 38.6286V36.3221H21.6701V37.223Z" fill="#FCBC85"/>
<path d="M11.8228 28.2641C13.6631 28.2641 15.155 26.562 15.155 24.4624C15.155 22.3628 13.6631 20.6607 11.8228 20.6607C9.98252 20.6607 8.49066 22.3628 8.49066 24.4624C8.49066 26.562 9.98252 28.2641 11.8228 28.2641Z" fill="#916A50"/>
<path d="M38.3463 28.2641C40.1866 28.2641 41.6784 26.562 41.6784 24.4624C41.6784 22.3628 40.1866 20.6607 38.3463 20.6607C36.506 20.6607 35.0141 22.3628 35.0141 24.4624C35.0141 26.562 36.506 28.2641 38.3463 28.2641Z" fill="#916A50"/>
<path d="M38.3328 17.201C38.3328 11.6012 34.2354 7.50378 25.0848 7.50378C15.9337 7.50378 11.8365 11.6012 11.8365 17.201C11.8365 22.8009 10.8805 37.5515 25.0848 37.5515C39.2888 37.5513 38.3328 22.8009 38.3328 17.201Z" fill="#FDCC9B"/>
<path d="M18.6319 25.1227C19.424 25.1227 20.066 24.4194 20.066 23.5519C20.066 22.6845 19.424 21.9812 18.6319 21.9812C17.8399 21.9812 17.1978 22.6845 17.1978 23.5519C17.1978 24.4194 17.8399 25.1227 18.6319 25.1227Z" fill="#3B2519"/>
<path d="M18.0065 23.2873C18.2434 23.2873 18.4354 23.0953 18.4354 22.8585C18.4354 22.6216 18.2434 22.4296 18.0065 22.4296C17.7696 22.4296 17.5776 22.6216 17.5776 22.8585C17.5776 23.0953 17.7696 23.2873 18.0065 23.2873Z" fill="white"/>
<path d="M16.3375 20.1654C17.0156 20.4252 18.1045 19.2831 20.5971 20.2765C21.0515 20.4577 21.3229 18.7274 18.6509 18.7274C16.3375 18.7274 15.9277 20.0086 16.3375 20.1654Z" fill="#D96E27"/>
<path d="M31.7148 25.1227C32.5068 25.1227 33.1489 24.4194 33.1489 23.5519C33.1489 22.6845 32.5068 21.9812 31.7148 21.9812C30.9227 21.9812 30.2807 22.6845 30.2807 23.5519C30.2807 24.4194 30.9227 25.1227 31.7148 25.1227Z" fill="#3B2519"/>
<path d="M31.0894 23.2876C31.3264 23.2876 31.5185 23.0955 31.5185 22.8585C31.5185 22.6215 31.3264 22.4294 31.0894 22.4294C30.8524 22.4294 30.6603 22.6215 30.6603 22.8585C30.6603 23.0955 30.8524 23.2876 31.0894 23.2876Z" fill="white"/>
<path d="M33.8316 20.1654C33.1534 20.4252 32.0648 19.2831 29.572 20.2765C29.1176 20.4577 28.8465 18.7274 31.5184 18.7274C33.8316 18.7274 34.2414 20.0086 33.8316 20.1654Z" fill="#D96E27"/>
<path d="M25.0848 29.0765C23.6676 29.0765 22.8141 28.0181 22.8141 28.5301C22.8141 29.0424 23.2239 30.0156 25.0848 30.0156C26.9457 30.0156 27.3552 29.0424 27.3552 28.5301C27.3552 28.0181 26.5017 29.0765 25.0848 29.0765Z" fill="#FCBC85"/>
<path d="M25.0847 33.7859C24.5948 33.7859 24.2993 33.4197 24.2993 33.597C24.2993 33.7742 24.441 34.1106 25.0847 34.1106C25.7285 34.1106 25.87 33.7742 25.87 33.597C25.8697 33.4197 25.5747 33.7859 25.0847 33.7859Z" fill="#FCBC85"/>
<path d="M25.0848 32.4809C22.8387 32.4809 21.4854 31.5665 21.4854 31.7981C21.4854 32.0297 22.135 32.9421 25.0848 32.9421C28.0345 32.9421 28.6839 32.03 28.6839 31.7981C28.6839 31.5663 27.3306 32.4809 25.0848 32.4809Z" fill="#F7945E"/>
<path d="M16.7877 30.5176C17.8627 30.5176 18.7341 29.6462 18.7341 28.5712C18.7341 27.4963 17.8627 26.6248 16.7877 26.6248C15.7128 26.6248 14.8413 27.4963 14.8413 28.5712C14.8413 29.6462 15.7128 30.5176 16.7877 30.5176Z" fill="#F9AA8D"/>
<path d="M33.6209 30.5174C34.6957 30.5174 35.567 29.646 35.567 28.5712C35.567 27.4964 34.6957 26.6251 33.6209 26.6251C32.5461 26.6251 31.6747 27.4964 31.6747 28.5712C31.6747 29.646 32.5461 30.5174 33.6209 30.5174Z" fill="#F9AA8D"/>
<path d="M25.0848 39.3952V47.9999H10.1295C10.1295 44.5169 17.2313 39.3952 25.0848 39.3952Z" fill="#F6A2B1"/>
<path d="M25.0848 39.3952V47.9999H40.0397C40.0397 44.5169 32.9379 39.3952 25.0848 39.3952Z" fill="#F6A2B1"/>
<path d="M21.6702 39.693L25.0846 45.7975C25.2888 45.7975 28.499 39.693 28.499 39.693C28.499 39.693 24.9568 38.4032 21.6702 39.693Z" fill="#FDCC9B"/>
<path d="M21.6701 38.6924L23.653 40.7666L25.0845 45.7975L23.0359 42.7244L20.7311 43.9707L18.7339 40.3789C18.7341 40.3786 20.4579 38.8091 21.6701 38.6924Z" fill="#F38191"/>
<path d="M28.4992 38.6924L26.5162 40.7666L25.0848 45.7975L27.1334 42.7244L29.438 43.9707L31.4355 40.3789C31.4353 40.3786 29.7115 38.8091 28.4992 38.6924Z" fill="#F38191"/>
<path d="M25.0848 47.9996V45.7975L23.9578 44.1073L25.0848 47.9996Z" fill="#F38191"/>
<path d="M25.0848 47.9996V45.7975L26.1205 44.1073L25.0848 47.9996Z" fill="#F38191"/>
<path d="M35.0141 3.95311C35.0141 3.95311 26.8102 -2.24402 16.7877 0.880219C7.25751 3.85066 7.05609 16.4505 7.36322 23.5528C7.67057 30.655 10.1294 31.5083 12.5874 30.5179C15.8385 29.2081 12.5874 25.123 12.5874 25.123C14.1239 23.5523 13.5095 20.6611 13.5095 20.6611C15.9165 20.5719 16.7875 16.655 16.7875 16.655C21.4701 18.4598 22.8136 14.9135 22.8136 14.9135C27.2012 17.2694 30.66 13.0696 30.66 13.0696C30.66 13.0696 32.8213 17.5631 35.5668 17.0645C35.5668 17.0645 34.845 21.385 36.5569 21.9816C36.5569 21.9816 34.7228 27.5131 37.1252 29.2032C39.5276 30.8934 43.4201 29.213 43.3177 20.6608C43.2155 12.1089 41.6784 3.13349 35.0141 3.95311Z" fill="#D96E27"/>
</svg>
