<svg width="48" height="48" viewBox="0 0 48 48" fill="none" xmlns="http://www.w3.org/2000/svg">
<path d="M8.88033 34.2014C10.4935 38.701 7.96448 46.9824 7.96448 46.9824H22.5853V21.5403L6.53946 24.6158C6.53969 24.6156 7.42184 30.1329 8.88033 34.2014Z" fill="#432B1F"/>
<path d="M36.3046 34.2014C34.6915 38.701 37.2207 46.9824 37.2207 46.9824H22.5996V21.5403L38.6452 24.6158C38.6452 24.6156 37.7633 30.1329 36.3046 34.2014Z" fill="#432B1F"/>
<path d="M25.9777 36.3984H19.1931V43.9971H25.9777V36.3984Z" fill="#FDCC9B"/>
<path d="M19.1931 37.2935C19.1931 37.2935 22.0471 39.1109 25.9777 38.6899V36.3984H19.1931V37.2935Z" fill="#FCBC85"/>
<path d="M9.40979 28.3926C11.2381 28.3926 12.7203 26.7016 12.7203 24.6156C12.7203 22.5297 11.2381 20.8387 9.40979 20.8387C7.58145 20.8387 6.09929 22.5297 6.09929 24.6156C6.09929 26.7016 7.58145 28.3926 9.40979 28.3926Z" fill="#FCBC85"/>
<path d="M35.7608 28.3926C37.5891 28.3926 39.0713 26.7016 39.0713 24.6156C39.0713 22.5297 37.5891 20.8387 35.7608 20.8387C33.9325 20.8387 32.4503 22.5297 32.4503 24.6156C32.4503 26.7016 33.9325 28.3926 35.7608 28.3926Z" fill="#FCBC85"/>
<path d="M35.7474 17.4017C35.7474 11.8385 31.6766 7.76749 22.5855 7.76749C13.494 7.76749 9.42342 11.8383 9.42342 17.4017C9.42342 22.9651 8.47364 37.6199 22.5855 37.6199C36.6972 37.6196 35.7474 22.9651 35.7474 17.4017Z" fill="#FDCC9B"/>
<path d="M16.1746 25.2718C16.9615 25.2718 17.5994 24.5732 17.5994 23.7113C17.5994 22.8495 16.9615 22.1508 16.1746 22.1508C15.3877 22.1508 14.7498 22.8495 14.7498 23.7113C14.7498 24.5732 15.3877 25.2718 16.1746 25.2718Z" fill="#3B2519"/>
<path d="M15.5532 23.4484C15.7886 23.4484 15.9793 23.2577 15.9793 23.0224C15.9793 22.787 15.7886 22.5963 15.5532 22.5963C15.3179 22.5963 15.1272 22.787 15.1272 23.0224C15.1272 23.2577 15.3179 23.4484 15.5532 23.4484Z" fill="white"/>
<path d="M13.8953 20.3468C14.5688 20.6049 15.6509 19.4702 18.127 20.4571C18.5784 20.6372 18.848 18.9181 16.1935 18.9181C13.8953 18.9181 13.4882 20.191 13.8953 20.3468Z" fill="#51362A"/>
<path d="M29.1721 25.2718C29.959 25.2718 30.5969 24.5732 30.5969 23.7113C30.5969 22.8495 29.959 22.1508 29.1721 22.1508C28.3852 22.1508 27.7473 22.8495 27.7473 23.7113C27.7473 24.5732 28.3852 25.2718 29.1721 25.2718Z" fill="#3B2519"/>
<path d="M28.551 23.4487C28.7864 23.4487 28.9773 23.2578 28.9773 23.0224C28.9773 22.7869 28.7864 22.5961 28.551 22.5961C28.3155 22.5961 28.1247 22.7869 28.1247 23.0224C28.1247 23.2578 28.3155 23.4487 28.551 23.4487Z" fill="white"/>
<path d="M31.2755 20.3468C30.6018 20.6049 29.5202 19.4702 27.0436 20.4571C26.5924 20.6372 26.3228 18.9181 28.9774 18.9181C31.2755 18.9181 31.6824 20.191 31.2755 20.3468Z" fill="#51362A"/>
<path d="M22.5853 29.2C21.1774 29.2 20.3294 28.1484 20.3294 28.6571C20.3294 29.166 20.7365 30.1329 22.5853 30.1329C24.4341 30.1329 24.841 29.166 24.841 28.6571C24.8412 28.1484 23.9932 29.2 22.5853 29.2Z" fill="#FCBC85"/>
<path d="M22.5853 33.8787C22.0985 33.8787 21.8049 33.5149 21.8049 33.6911C21.8049 33.8672 21.9457 34.2014 22.5853 34.2014C23.2249 34.2014 23.3657 33.8672 23.3657 33.6911C23.3657 33.5149 23.0723 33.8787 22.5853 33.8787Z" fill="#FCBC85"/>
<path d="M22.5853 32.5822C20.3538 32.5822 19.0094 31.6738 19.0094 31.9039C19.0094 32.1342 19.6547 33.0404 22.5853 33.0404C25.5159 33.0404 26.161 32.1342 26.161 31.9039C26.161 31.6735 24.8167 32.5822 22.5853 32.5822Z" fill="#F7945E"/>
<path d="M14.3422 30.6317C15.4101 30.6317 16.2759 29.7659 16.2759 28.6979C16.2759 27.63 15.4101 26.7642 14.3422 26.7642C13.2742 26.7642 12.4084 27.63 12.4084 28.6979C12.4084 29.7659 13.2742 30.6317 14.3422 30.6317Z" fill="#F9AA8D"/>
<path d="M31.0661 30.6314C32.134 30.6314 32.9996 29.7658 32.9996 28.698C32.9996 27.6301 32.134 26.7645 31.0661 26.7645C29.9983 26.7645 29.1327 27.6301 29.1327 28.698C29.1327 29.7658 29.9983 30.6314 31.0661 30.6314Z" fill="#F9AA8D"/>
<path d="M22.5853 39.4516V48.0003H7.72742C7.72742 44.54 14.783 39.4516 22.5853 39.4516Z" fill="#694B74"/>
<path d="M22.5853 39.4516V48.0003H37.4429C37.4429 44.54 30.3876 39.4516 22.5853 39.4516Z" fill="#694B74"/>
<path d="M22.5412 39.4516C20.863 39.4516 19.1449 39.6835 17.4789 40.0794C17.4902 40.0939 19.3268 42.4369 22.5412 42.4369C25.5182 42.4369 27.4972 40.4304 27.7841 40.1218C26.0622 39.6992 24.2802 39.4516 22.5412 39.4516Z" fill="#563C60"/>
<path d="M19.1931 39.7475C19.1931 39.7475 20.1854 40.9781 22.5853 40.9781C24.9853 40.9781 25.9775 39.7475 25.9775 39.7475C25.9775 39.7475 22.4581 38.466 19.1931 39.7475Z" fill="#FDCC9B"/>
<path d="M34.5262 5.6643C25.9775 -4.51277 9.69461 -0.441986 6.09907 13.6023C2.50375 27.6463 8.88032 34.2013 8.88032 34.2013C6.43513 25.9247 12.137 17.3677 17.0219 17.2659C21.907 17.1641 29.6414 14.4163 29.6414 14.4163C29.6414 14.4163 30.9397 21.0226 35.1369 23.4484C38.2919 25.2718 37.0935 30.6316 36.2792 34.2013C39.3321 33.0401 48.3667 9.83687 34.5262 5.6643Z" fill="#51362A"/>
</svg>
